<svg width="842" height="595" viewBox="0 0 842 595" fill="none" xmlns="http://www.w3.org/2000/svg">
<g clip-path="url(#clip0_87_75)">
<mask id="mask0_87_75" style="mask-type:luminance" maskUnits="userSpaceOnUse" x="0" y="0" width="842" height="595">
<path d="M0 0V595H842V0H0Z" fill="white"/>
</mask>
<g mask="url(#mask0_87_75)">
<path d="M0 0V595H842V0H0Z" fill="url(#paint0_linear_87_75)"/>
<g filter="url(#filter0_d_87_75)">
<path d="M-3.7194 -52.5H-17.8726C-53.5653 -52.5 -82.5 -23.5653 -82.5 12.1274V190.62C-82.5 226.312 -53.5653 255.247 -17.8726 255.247H-3.7194C31.9733 255.247 60.908 226.312 60.908 190.62V12.1274C60.908 -23.5653 31.9733 -52.5 -3.7194 -52.5Z" fill="url(#paint1_linear_87_75)"/>
</g>
<g filter="url(#filter1_d_87_75)">
<path d="M97.2806 -109.778H83.1274C47.4347 -109.778 18.5 -80.8434 18.5 -45.1507V133.342C18.5 169.034 47.4347 197.969 83.1274 197.969H97.2806C132.973 197.969 161.908 169.034 161.908 133.342V-45.1507C161.908 -80.8434 132.973 -109.778 97.2806 -109.778Z" fill="url(#paint2_linear_87_75)"/>
</g>
<g filter="url(#filter2_d_87_75)">
<path d="M12.2806 316.5H-1.8726C-37.5653 316.5 -66.5 345.435 -66.5 381.127V559.62C-66.5 595.312 -37.5653 624.247 -1.8726 624.247H12.2806C47.9733 624.247 76.908 595.312 76.908 559.62V381.127C76.908 345.435 47.9733 316.5 12.2806 316.5Z" fill="url(#paint3_linear_87_75)"/>
</g>
<path d="M208.932 182.668C207.364 182.668 205.924 182.3 204.612 181.564C203.3 180.828 202.26 179.812 201.492 178.516C200.724 177.204 200.34 175.724 200.34 174.076C200.34 172.444 200.724 170.98 201.492 169.684C202.26 168.372 203.3 167.348 204.612 166.612C205.924 165.876 207.364 165.508 208.932 165.508C210.516 165.508 211.956 165.876 213.252 166.612C214.564 167.348 215.596 168.372 216.348 169.684C217.116 170.98 217.5 172.444 217.5 174.076C217.5 175.724 217.116 177.204 216.348 178.516C215.596 179.812 214.564 180.828 213.252 181.564C211.94 182.3 210.5 182.668 208.932 182.668ZM208.932 179.668C209.94 179.668 210.828 179.444 211.596 178.996C212.364 178.532 212.964 177.876 213.396 177.028C213.828 176.18 214.044 175.196 214.044 174.076C214.044 172.956 213.828 171.98 213.396 171.148C212.964 170.3 212.364 169.652 211.596 169.204C210.828 168.756 209.94 168.532 208.932 168.532C207.924 168.532 207.028 168.756 206.244 169.204C205.476 169.652 204.876 170.3 204.444 171.148C204.012 171.98 203.796 172.956 203.796 174.076C203.796 175.196 204.012 176.18 204.444 177.028C204.876 177.876 205.476 178.532 206.244 178.996C207.028 179.444 207.924 179.668 208.932 179.668ZM226.096 171.964H223.768V182.5H220.36V171.964H218.848V169.204H220.36V168.532C220.36 166.9 220.824 165.7 221.752 164.932C222.68 164.164 224.08 163.804 225.952 163.852V166.684C225.136 166.668 224.568 166.804 224.248 167.092C223.928 167.38 223.768 167.9 223.768 168.652V169.204H226.096V171.964ZM233.176 174.1C233.176 172.452 233.544 170.98 234.28 169.684C235.032 168.372 236.048 167.356 237.328 166.636C238.624 165.9 240.072 165.532 241.672 165.532C243.544 165.532 245.184 166.012 246.592 166.972C248 167.932 248.984 169.26 249.544 170.956H245.68C245.296 170.156 244.752 169.556 244.048 169.156C243.36 168.756 242.56 168.556 241.648 168.556C240.672 168.556 239.8 168.788 239.032 169.252C238.28 169.7 237.688 170.34 237.256 171.172C236.84 172.004 236.632 172.98 236.632 174.1C236.632 175.204 236.84 176.18 237.256 177.028C237.688 177.86 238.28 178.508 239.032 178.972C239.8 179.42 240.672 179.644 241.648 179.644C242.56 179.644 243.36 179.444 244.048 179.044C244.752 178.628 245.296 178.02 245.68 177.22H249.544C248.984 178.932 248 180.268 246.592 181.228C245.2 182.172 243.56 182.644 241.672 182.644C240.072 182.644 238.624 182.284 237.328 181.564C236.048 180.828 235.032 179.812 234.28 178.516C233.544 177.22 233.176 175.748 233.176 174.1ZM258.318 182.716C257.038 182.716 255.886 182.436 254.862 181.876C253.838 181.3 253.03 180.492 252.438 179.452C251.862 178.412 251.574 177.212 251.574 175.852C251.574 174.492 251.87 173.292 252.462 172.252C253.07 171.212 253.894 170.412 254.934 169.852C255.974 169.276 257.134 168.988 258.414 168.988C259.694 168.988 260.854 169.276 261.894 169.852C262.934 170.412 263.75 171.212 264.342 172.252C264.95 173.292 265.254 174.492 265.254 175.852C265.254 177.212 264.942 178.412 264.318 179.452C263.71 180.492 262.878 181.3 261.822 181.876C260.782 182.436 259.614 182.716 258.318 182.716ZM258.318 179.788C258.926 179.788 259.494 179.644 260.022 179.356C260.566 179.052 260.998 178.604 261.318 178.012C261.638 177.42 261.798 176.7 261.798 175.852C261.798 174.588 261.462 173.62 260.79 172.948C260.134 172.26 259.326 171.916 258.366 171.916C257.406 171.916 256.598 172.26 255.942 172.948C255.302 173.62 254.982 174.588 254.982 175.852C254.982 177.116 255.294 178.092 255.918 178.78C256.558 179.452 257.358 179.788 258.318 179.788ZM284.231 169.012C285.863 169.012 287.175 169.516 288.167 170.524C289.175 171.516 289.679 172.908 289.679 174.7V182.5H286.319V175.156C286.319 174.116 286.055 173.324 285.527 172.78C284.999 172.22 284.279 171.94 283.367 171.94C282.455 171.94 281.727 172.22 281.183 172.78C280.655 173.324 280.391 174.116 280.391 175.156V182.5H277.031V175.156C277.031 174.116 276.767 173.324 276.239 172.78C275.711 172.22 274.991 171.94 274.079 171.94C273.151 171.94 272.415 172.22 271.871 172.78C271.343 173.324 271.079 174.116 271.079 175.156V182.5H267.719V169.204H271.079V170.812C271.511 170.252 272.063 169.812 272.735 169.492C273.423 169.172 274.175 169.012 274.991 169.012C276.031 169.012 276.959 169.236 277.775 169.684C278.591 170.116 279.223 170.74 279.671 171.556C280.103 170.788 280.727 170.172 281.543 169.708C282.375 169.244 283.271 169.012 284.231 169.012ZM296.227 171.124C296.659 170.516 297.251 170.012 298.003 169.612C298.771 169.196 299.643 168.988 300.619 168.988C301.755 168.988 302.779 169.268 303.691 169.828C304.619 170.388 305.347 171.188 305.875 172.228C306.419 173.252 306.691 174.444 306.691 175.804C306.691 177.164 306.419 178.372 305.875 179.428C305.347 180.468 304.619 181.276 303.691 181.852C302.779 182.428 301.755 182.716 300.619 182.716C299.643 182.716 298.779 182.516 298.027 182.116C297.291 181.716 296.691 181.212 296.227 180.604V188.836H292.867V169.204H296.227V171.124ZM303.259 175.804C303.259 175.004 303.091 174.316 302.755 173.74C302.435 173.148 302.003 172.7 301.459 172.396C300.931 172.092 300.355 171.94 299.731 171.94C299.123 171.94 298.547 172.1 298.003 172.42C297.475 172.724 297.043 173.172 296.707 173.764C296.387 174.356 296.227 175.052 296.227 175.852C296.227 176.652 296.387 177.348 296.707 177.94C297.043 178.532 297.475 178.988 298.003 179.308C298.547 179.612 299.123 179.764 299.731 179.764C300.355 179.764 300.931 179.604 301.459 179.284C302.003 178.964 302.435 178.508 302.755 177.916C303.091 177.324 303.259 176.62 303.259 175.804ZM312.493 164.74V182.5H309.133V164.74H312.493ZM328.172 175.564C328.172 176.044 328.14 176.476 328.076 176.86H318.356C318.436 177.82 318.772 178.572 319.364 179.116C319.956 179.66 320.684 179.932 321.548 179.932C322.796 179.932 323.684 179.396 324.212 178.324H327.836C327.452 179.604 326.716 180.66 325.628 181.492C324.54 182.308 323.204 182.716 321.62 182.716C320.34 182.716 319.188 182.436 318.164 181.876C317.156 181.3 316.364 180.492 315.788 179.452C315.228 178.412 314.948 177.212 314.948 175.852C314.948 174.476 315.228 173.268 315.788 172.228C316.348 171.188 317.132 170.388 318.14 169.828C319.148 169.268 320.308 168.988 321.62 168.988C322.884 168.988 324.012 169.26 325.004 169.804C326.012 170.348 326.788 171.124 327.332 172.132C327.892 173.124 328.172 174.268 328.172 175.564ZM324.692 174.604C324.676 173.74 324.364 173.052 323.756 172.54C323.148 172.012 322.404 171.748 321.524 171.748C320.692 171.748 319.988 172.004 319.412 172.516C318.852 173.012 318.508 173.708 318.38 174.604H324.692ZM334.537 171.964V178.396C334.537 178.844 334.641 179.172 334.849 179.38C335.073 179.572 335.441 179.668 335.953 179.668H337.513V182.5H335.401C332.569 182.5 331.153 181.124 331.153 178.372V171.964H329.569V169.204H331.153V165.916H334.537V169.204H337.513V171.964H334.537ZM341.633 167.62C341.041 167.62 340.545 167.436 340.145 167.068C339.761 166.684 339.569 166.212 339.569 165.652C339.569 165.092 339.761 164.628 340.145 164.26C340.545 163.876 341.041 163.684 341.633 163.684C342.225 163.684 342.713 163.876 343.097 164.26C343.497 164.628 343.697 165.092 343.697 165.652C343.697 166.212 343.497 166.684 343.097 167.068C342.713 167.436 342.225 167.62 341.633 167.62ZM343.289 169.204V182.5H339.929V169.204H343.289ZM352.513 182.716C351.233 182.716 350.081 182.436 349.057 181.876C348.033 181.3 347.225 180.492 346.633 179.452C346.057 178.412 345.769 177.212 345.769 175.852C345.769 174.492 346.065 173.292 346.657 172.252C347.265 171.212 348.089 170.412 349.129 169.852C350.169 169.276 351.329 168.988 352.609 168.988C353.889 168.988 355.049 169.276 356.089 169.852C357.129 170.412 357.945 171.212 358.537 172.252C359.145 173.292 359.449 174.492 359.449 175.852C359.449 177.212 359.137 178.412 358.513 179.452C357.905 180.492 357.073 181.3 356.017 181.876C354.977 182.436 353.809 182.716 352.513 182.716ZM352.513 179.788C353.121 179.788 353.689 179.644 354.217 179.356C354.761 179.052 355.193 178.604 355.513 178.012C355.833 177.42 355.993 176.7 355.993 175.852C355.993 174.588 355.657 173.62 354.985 172.948C354.329 172.26 353.521 171.916 352.561 171.916C351.601 171.916 350.793 172.26 350.137 172.948C349.497 173.62 349.177 174.588 349.177 175.852C349.177 177.116 349.489 178.092 350.113 178.78C350.753 179.452 351.553 179.788 352.513 179.788ZM369.282 169.012C370.866 169.012 372.146 169.516 373.122 170.524C374.098 171.516 374.586 172.908 374.586 174.7V182.5H371.226V175.156C371.226 174.1 370.962 173.292 370.434 172.732C369.906 172.156 369.186 171.868 368.274 171.868C367.346 171.868 366.61 172.156 366.066 172.732C365.538 173.292 365.274 174.1 365.274 175.156V182.5H361.914V169.204H365.274V170.86C365.722 170.284 366.29 169.836 366.978 169.516C367.682 169.18 368.45 169.012 369.282 169.012Z" fill="black"/>
<path d="M201.612 117.972C201.612 113.535 202.572 109.588 204.492 106.132C206.412 102.633 209.079 99.9238 212.492 98.0038C215.948 96.0411 219.852 95.0598 224.204 95.0598C229.537 95.0598 234.103 96.4678 237.9 99.2838C241.697 102.1 244.236 105.94 245.516 110.804H233.484C232.588 108.927 231.308 107.497 229.644 106.516C228.023 105.535 226.167 105.044 224.076 105.044C220.705 105.044 217.975 106.217 215.884 108.564C213.793 110.911 212.748 114.047 212.748 117.972C212.748 121.897 213.793 125.033 215.884 127.38C217.975 129.727 220.705 130.9 224.076 130.9C226.167 130.9 228.023 130.409 229.644 129.428C231.308 128.447 232.588 127.017 233.484 125.14H245.516C244.236 130.004 241.697 133.844 237.9 136.66C234.103 139.433 229.537 140.82 224.204 140.82C219.852 140.82 215.948 139.86 212.492 137.94C209.079 135.977 206.412 133.268 204.492 129.812C202.572 126.356 201.612 122.409 201.612 117.972ZM285.882 122.068C285.882 123.092 285.818 124.159 285.69 125.268H260.922C261.093 127.487 261.797 129.193 263.034 130.388C264.314 131.54 265.871 132.116 267.706 132.116C270.437 132.116 272.335 130.964 273.402 128.66H285.05C284.453 131.007 283.365 133.119 281.786 134.996C280.25 136.873 278.309 138.345 275.962 139.412C273.615 140.479 270.991 141.012 268.09 141.012C264.591 141.012 261.477 140.265 258.746 138.772C256.015 137.279 253.882 135.145 252.346 132.372C250.81 129.599 250.042 126.356 250.042 122.644C250.042 118.932 250.789 115.689 252.282 112.916C253.818 110.143 255.951 108.009 258.682 106.516C261.413 105.023 264.549 104.276 268.09 104.276C271.546 104.276 274.618 105.001 277.306 106.452C279.994 107.903 282.085 109.972 283.578 112.66C285.114 115.348 285.882 118.484 285.882 122.068ZM274.682 119.188C274.682 117.311 274.042 115.817 272.762 114.708C271.482 113.599 269.882 113.044 267.962 113.044C266.127 113.044 264.57 113.577 263.29 114.644C262.053 115.711 261.285 117.225 260.986 119.188H274.682ZM302.6 110.74C303.88 108.777 305.48 107.241 307.4 106.132C309.32 104.98 311.453 104.404 313.8 104.404V115.988H310.792C308.061 115.988 306.013 116.585 304.648 117.78C303.282 118.932 302.6 120.98 302.6 123.924V140.5H291.656V104.788H302.6V110.74ZM338.935 131.22V140.5H333.367C329.399 140.5 326.305 139.54 324.087 137.62C321.868 135.657 320.759 132.479 320.759 128.084V113.876H316.407V104.788H320.759V96.0838H331.703V104.788H338.871V113.876H331.703V128.212C331.703 129.279 331.959 130.047 332.471 130.516C332.983 130.985 333.836 131.22 335.031 131.22H338.935ZM350.535 101.076C348.615 101.076 347.036 100.521 345.799 99.4118C344.604 98.2598 344.007 96.8518 344.007 95.1878C344.007 93.4811 344.604 92.0731 345.799 90.9638C347.036 89.8118 348.615 89.2358 350.535 89.2358C352.412 89.2358 353.948 89.8118 355.143 90.9638C356.38 92.0731 356.999 93.4811 356.999 95.1878C356.999 96.8518 356.38 98.2598 355.143 99.4118C353.948 100.521 352.412 101.076 350.535 101.076ZM355.975 104.788V140.5H345.031V104.788H355.975ZM381.826 113.876H375.938V140.5H364.994V113.876H361.026V104.788H364.994V103.764C364.994 99.3691 366.252 96.0411 368.77 93.7798C371.287 91.4758 374.978 90.3238 379.842 90.3238C380.652 90.3238 381.25 90.3451 381.634 90.3878V99.6678C379.543 99.5398 378.071 99.8385 377.218 100.564C376.364 101.289 375.938 102.591 375.938 104.468V104.788H381.826V113.876ZM392.472 101.076C390.552 101.076 388.973 100.521 387.736 99.4118C386.541 98.2598 385.944 96.8518 385.944 95.1878C385.944 93.4811 386.541 92.0731 387.736 90.9638C388.973 89.8118 390.552 89.2358 392.472 89.2358C394.349 89.2358 395.885 89.8118 397.08 90.9638C398.317 92.0731 398.936 93.4811 398.936 95.1878C398.936 96.8518 398.317 98.2598 397.08 99.4118C395.885 100.521 394.349 101.076 392.472 101.076ZM397.912 104.788V140.5H386.968V104.788H397.912ZM403.667 122.644C403.667 118.932 404.414 115.689 405.907 112.916C407.443 110.143 409.555 108.009 412.243 106.516C414.974 105.023 418.088 104.276 421.587 104.276C426.067 104.276 429.8 105.449 432.787 107.796C435.816 110.143 437.8 113.449 438.739 117.716H427.091C426.11 114.985 424.211 113.62 421.395 113.62C419.39 113.62 417.79 114.409 416.595 115.988C415.4 117.524 414.803 119.743 414.803 122.644C414.803 125.545 415.4 127.785 416.595 129.364C417.79 130.9 419.39 131.668 421.395 131.668C424.211 131.668 426.11 130.303 427.091 127.572H438.739C437.8 131.753 435.816 135.039 432.787 137.428C429.758 139.817 426.024 141.012 421.587 141.012C418.088 141.012 414.974 140.265 412.243 138.772C409.555 137.279 407.443 135.145 405.907 132.372C404.414 129.599 403.667 126.356 403.667 122.644ZM442.417 122.58C442.417 118.911 443.1 115.689 444.465 112.916C445.873 110.143 447.772 108.009 450.161 106.516C452.55 105.023 455.217 104.276 458.161 104.276C460.678 104.276 462.876 104.788 464.753 105.812C466.673 106.836 468.145 108.18 469.169 109.844V104.788H480.113V140.5H469.169V135.444C468.102 137.108 466.609 138.452 464.689 139.476C462.812 140.5 460.614 141.012 458.097 141.012C455.196 141.012 452.55 140.265 450.161 138.772C447.772 137.236 445.873 135.081 444.465 132.308C443.1 129.492 442.417 126.249 442.417 122.58ZM469.169 122.644C469.169 119.913 468.401 117.759 466.865 116.18C465.372 114.601 463.537 113.812 461.361 113.812C459.185 113.812 457.329 114.601 455.793 116.18C454.3 117.716 453.553 119.849 453.553 122.58C453.553 125.311 454.3 127.487 455.793 129.108C457.329 130.687 459.185 131.476 461.361 131.476C463.537 131.476 465.372 130.687 466.865 129.108C468.401 127.529 469.169 125.375 469.169 122.644ZM507.935 131.22V140.5H502.367C498.399 140.5 495.305 139.54 493.087 137.62C490.868 135.657 489.759 132.479 489.759 128.084V113.876H485.407V104.788H489.759V96.0838H500.703V104.788H507.871V113.876H500.703V128.212C500.703 129.279 500.959 130.047 501.471 130.516C501.983 130.985 502.836 131.22 504.031 131.22H507.935ZM547.694 122.068C547.694 123.092 547.631 124.159 547.503 125.268H522.735C522.905 127.487 523.609 129.193 524.847 130.388C526.127 131.54 527.684 132.116 529.519 132.116C532.249 132.116 534.148 130.964 535.215 128.66H546.863C546.265 131.007 545.177 133.119 543.599 134.996C542.063 136.873 540.121 138.345 537.775 139.412C535.428 140.479 532.804 141.012 529.903 141.012C526.404 141.012 523.289 140.265 520.559 138.772C517.828 137.279 515.695 135.145 514.159 132.372C512.623 129.599 511.855 126.356 511.855 122.644C511.855 118.932 512.601 115.689 514.095 112.916C515.631 110.143 517.764 108.009 520.495 106.516C523.225 105.023 526.361 104.276 529.903 104.276C533.359 104.276 536.431 105.001 539.119 106.452C541.807 107.903 543.897 109.972 545.391 112.66C546.927 115.348 547.694 118.484 547.694 122.068ZM536.495 119.188C536.495 117.311 535.855 115.817 534.575 114.708C533.295 113.599 531.695 113.044 529.775 113.044C527.94 113.044 526.383 113.577 525.103 114.644C523.865 115.711 523.097 117.225 522.799 119.188H536.495Z" fill="url(#paint4_linear_87_75)"/>
<path d="M211.4 234.6L211.08 236.38H207.38L205.24 248.5H202.96L205.1 236.38H201.38L201.7 234.6H211.4ZM218.929 237.3C220.036 237.3 220.922 237.613 221.589 238.24C222.256 238.853 222.589 239.733 222.589 240.88C222.589 241.187 222.556 241.56 222.489 242L221.329 248.5H219.069L220.169 242.34C220.222 241.967 220.249 241.7 220.249 241.54C220.249 240.807 220.042 240.247 219.629 239.86C219.229 239.473 218.669 239.28 217.949 239.28C217.082 239.28 216.349 239.547 215.749 240.08C215.162 240.6 214.789 241.353 214.629 242.34V242.3L213.529 248.5H211.249L213.869 233.7H216.149L215.249 238.76C215.716 238.293 216.269 237.933 216.909 237.68C217.549 237.427 218.222 237.3 218.929 237.3ZM227.597 236.02C227.237 236.02 226.944 235.907 226.717 235.68C226.491 235.453 226.377 235.167 226.377 234.82C226.377 234.353 226.551 233.953 226.897 233.62C227.257 233.273 227.664 233.1 228.117 233.1C228.477 233.1 228.764 233.213 228.977 233.44C229.204 233.667 229.317 233.953 229.317 234.3C229.317 234.767 229.144 235.173 228.797 235.52C228.451 235.853 228.051 236.02 227.597 236.02ZM228.457 237.48L226.517 248.5H224.237L226.177 237.48H228.457ZM233.571 248.68C232.811 248.68 232.117 248.553 231.491 248.3C230.864 248.033 230.371 247.667 230.011 247.2C229.651 246.72 229.471 246.173 229.471 245.56C229.471 245.453 229.484 245.307 229.511 245.12H231.731C231.677 245.627 231.831 246.047 232.191 246.38C232.551 246.713 233.057 246.88 233.711 246.88C234.351 246.88 234.877 246.767 235.291 246.54C235.704 246.313 235.911 245.98 235.911 245.54C235.911 245.167 235.737 244.867 235.391 244.64C235.057 244.413 234.517 244.16 233.771 243.88C233.064 243.6 232.491 243.34 232.051 243.1C231.611 242.86 231.231 242.533 230.911 242.12C230.591 241.693 230.431 241.167 230.431 240.54C230.431 239.9 230.611 239.34 230.971 238.86C231.344 238.367 231.857 237.987 232.511 237.72C233.177 237.44 233.937 237.3 234.791 237.3C235.564 237.3 236.251 237.433 236.851 237.7C237.464 237.953 237.937 238.32 238.271 238.8C238.617 239.267 238.791 239.807 238.791 240.42C238.791 240.607 238.784 240.747 238.771 240.84H236.611C236.664 240.32 236.511 239.9 236.151 239.58C235.804 239.26 235.304 239.1 234.651 239.1C234.077 239.1 233.611 239.22 233.251 239.46C232.904 239.7 232.731 240.027 232.731 240.44C232.731 240.853 232.911 241.187 233.271 241.44C233.631 241.68 234.184 241.947 234.931 242.24C235.611 242.507 236.164 242.76 236.591 243C237.017 243.24 237.384 243.56 237.691 243.96C237.997 244.36 238.151 244.86 238.151 245.46C238.151 246.113 237.951 246.687 237.551 247.18C237.164 247.66 236.624 248.033 235.931 248.3C235.237 248.553 234.451 248.68 233.571 248.68ZM246.67 241.52C246.91 240.16 247.437 238.94 248.25 237.86C249.077 236.78 250.084 235.94 251.27 235.34C252.47 234.727 253.717 234.42 255.01 234.42C256.49 234.42 257.744 234.787 258.77 235.52C259.81 236.24 260.47 237.267 260.75 238.6H258.01C257.757 237.907 257.344 237.387 256.77 237.04C256.197 236.68 255.49 236.5 254.65 236.5C253.73 236.5 252.87 236.707 252.07 237.12C251.284 237.533 250.617 238.12 250.07 238.88C249.537 239.64 249.184 240.52 249.01 241.52C248.944 241.96 248.91 242.333 248.91 242.64C248.91 243.84 249.27 244.793 249.99 245.5C250.71 246.207 251.67 246.56 252.87 246.56C253.71 246.56 254.484 246.387 255.19 246.04C255.897 245.68 256.49 245.153 256.97 244.46H259.71C258.95 245.793 257.93 246.82 256.65 247.54C255.37 248.26 253.99 248.62 252.51 248.62C251.364 248.62 250.337 248.38 249.43 247.9C248.524 247.42 247.817 246.747 247.31 245.88C246.804 245.013 246.55 244.013 246.55 242.88C246.55 242.453 246.59 242 246.67 241.52ZM268.379 237.3C269.753 237.3 270.846 237.687 271.659 238.46C272.486 239.233 272.899 240.273 272.899 241.58C272.899 241.887 272.866 242.253 272.799 242.68C272.746 242.973 272.653 243.333 272.519 243.76H264.099C264.086 243.853 264.079 243.993 264.079 244.18C264.079 244.967 264.319 245.593 264.799 246.06C265.293 246.527 265.933 246.76 266.719 246.76C267.959 246.76 268.913 246.247 269.579 245.22H272.039C271.533 246.233 270.786 247.067 269.799 247.72C268.813 248.36 267.673 248.68 266.379 248.68C265.459 248.68 264.653 248.5 263.959 248.14C263.266 247.78 262.726 247.267 262.339 246.6C261.953 245.92 261.759 245.127 261.759 244.22C261.759 243.833 261.799 243.42 261.879 242.98C262.079 241.847 262.486 240.853 263.099 240C263.713 239.133 264.473 238.467 265.379 238C266.299 237.533 267.299 237.3 268.379 237.3ZM270.519 242.12C270.546 241.88 270.559 241.707 270.559 241.6C270.559 240.867 270.313 240.287 269.819 239.86C269.339 239.433 268.713 239.22 267.939 239.22C267.126 239.22 266.393 239.48 265.739 240C265.086 240.52 264.639 241.227 264.399 242.12H270.519ZM277.883 239.42C278.336 238.753 278.87 238.233 279.483 237.86C280.11 237.487 280.803 237.3 281.563 237.3L281.143 239.66H280.563C279.683 239.66 278.976 239.88 278.443 240.32C277.91 240.76 277.536 241.52 277.323 242.6L276.283 248.5H274.003L275.943 237.48H278.223L277.883 239.42ZM284.879 245.44C284.852 245.627 284.839 245.747 284.839 245.8C284.839 246.08 284.925 246.287 285.099 246.42C285.272 246.54 285.559 246.6 285.959 246.6H287.359L287.019 248.5H285.219C284.339 248.5 283.665 248.327 283.199 247.98C282.732 247.62 282.499 247.053 282.499 246.28C282.499 245.987 282.525 245.707 282.579 245.44L283.659 239.34H282.359L282.679 237.48H283.999L284.479 234.74H286.779L286.299 237.48H288.959L288.639 239.34H285.959L284.879 245.44ZM292.48 236.02C292.12 236.02 291.827 235.907 291.6 235.68C291.373 235.453 291.26 235.167 291.26 234.82C291.26 234.353 291.433 233.953 291.78 233.62C292.14 233.273 292.547 233.1 293 233.1C293.36 233.1 293.647 233.213 293.86 233.44C294.087 233.667 294.2 233.953 294.2 234.3C294.2 234.767 294.027 235.173 293.68 235.52C293.333 235.853 292.933 236.02 292.48 236.02ZM293.34 237.48L291.4 248.5H289.12L291.06 237.48H293.34ZM301.254 234.96C300.56 234.96 300.047 235.093 299.714 235.36C299.38 235.627 299.16 236.073 299.054 236.7L298.914 237.48H300.954L300.634 239.34H298.594L296.974 248.5H294.674L296.294 239.34H294.994L295.314 237.48H296.614L296.754 236.7C296.98 235.433 297.48 234.513 298.254 233.94C299.027 233.353 300.134 233.06 301.574 233.06L301.254 234.96ZM304.394 236.02C304.034 236.02 303.741 235.907 303.514 235.68C303.288 235.453 303.174 235.167 303.174 234.82C303.174 234.353 303.348 233.953 303.694 233.62C304.054 233.273 304.461 233.1 304.914 233.1C305.274 233.1 305.561 233.213 305.774 233.44C306.001 233.667 306.114 233.953 306.114 234.3C306.114 234.767 305.941 235.173 305.594 235.52C305.248 235.853 304.848 236.02 304.394 236.02ZM305.254 237.48L303.314 248.5H301.034L302.974 237.48H305.254ZM306.528 242.98C306.728 241.847 307.128 240.853 307.728 240C308.341 239.133 309.094 238.467 309.988 238C310.894 237.533 311.874 237.3 312.928 237.3C314.261 237.3 315.308 237.62 316.068 238.26C316.828 238.887 317.261 239.787 317.368 240.96H314.908C314.801 240.413 314.554 239.987 314.168 239.68C313.781 239.373 313.254 239.22 312.588 239.22C311.654 239.22 310.854 239.553 310.188 240.22C309.521 240.873 309.081 241.793 308.868 242.98C308.801 243.407 308.768 243.753 308.768 244.02C308.768 244.9 308.988 245.58 309.428 246.06C309.868 246.527 310.481 246.76 311.268 246.76C312.588 246.76 313.561 246.18 314.188 245.02H316.648C316.128 246.14 315.368 247.033 314.368 247.7C313.381 248.353 312.234 248.68 310.928 248.68C309.541 248.68 308.441 248.287 307.628 247.5C306.814 246.7 306.408 245.62 306.408 244.26C306.408 243.847 306.448 243.42 306.528 242.98ZM318.52 242.94C318.72 241.833 319.12 240.853 319.72 240C320.333 239.147 321.08 238.487 321.96 238.02C322.84 237.54 323.76 237.3 324.72 237.3C325.587 237.3 326.313 237.473 326.9 237.82C327.487 238.153 327.927 238.573 328.22 239.08L328.5 237.48H330.8L328.86 248.5H326.56L326.86 246.86C326.38 247.38 325.773 247.813 325.04 248.16C324.32 248.507 323.533 248.68 322.68 248.68C321.853 248.68 321.113 248.493 320.46 248.12C319.82 247.747 319.313 247.22 318.94 246.54C318.58 245.847 318.4 245.053 318.4 244.16C318.4 243.76 318.44 243.353 318.52 242.94ZM327.54 242.98C327.593 242.727 327.62 242.453 327.62 242.16C327.62 241.267 327.353 240.567 326.82 240.06C326.3 239.54 325.647 239.28 324.86 239.28C324.273 239.28 323.7 239.427 323.14 239.72C322.58 240 322.093 240.42 321.68 240.98C321.267 241.527 320.993 242.18 320.86 242.94C320.807 243.193 320.78 243.467 320.78 243.76C320.78 244.667 321.04 245.387 321.56 245.92C322.093 246.44 322.753 246.7 323.54 246.7C324.127 246.7 324.7 246.553 325.26 246.26C325.82 245.967 326.307 245.54 326.72 244.98C327.133 244.407 327.407 243.74 327.54 242.98ZM335.055 245.44C335.028 245.627 335.015 245.747 335.015 245.8C335.015 246.08 335.101 246.287 335.275 246.42C335.448 246.54 335.735 246.6 336.135 246.6H337.535L337.195 248.5H335.395C334.515 248.5 333.841 248.327 333.375 247.98C332.908 247.62 332.675 247.053 332.675 246.28C332.675 245.987 332.701 245.707 332.755 245.44L333.835 239.34H332.535L332.855 237.48H334.175L334.655 234.74H336.955L336.475 237.48H339.135L338.815 239.34H336.135L335.055 245.44ZM346.016 237.3C347.389 237.3 348.483 237.687 349.296 238.46C350.123 239.233 350.536 240.273 350.536 241.58C350.536 241.887 350.503 242.253 350.436 242.68C350.383 242.973 350.289 243.333 350.156 243.76H341.736C341.723 243.853 341.716 243.993 341.716 244.18C341.716 244.967 341.956 245.593 342.436 246.06C342.929 246.527 343.569 246.76 344.356 246.76C345.596 246.76 346.549 246.247 347.216 245.22H349.676C349.169 246.233 348.423 247.067 347.436 247.72C346.449 248.36 345.309 248.68 344.016 248.68C343.096 248.68 342.289 248.5 341.596 248.14C340.903 247.78 340.363 247.267 339.976 246.6C339.589 245.92 339.396 245.127 339.396 244.22C339.396 243.833 339.436 243.42 339.516 242.98C339.716 241.847 340.123 240.853 340.736 240C341.349 239.133 342.109 238.467 343.016 238C343.936 237.533 344.936 237.3 346.016 237.3ZM348.156 242.12C348.183 241.88 348.196 241.707 348.196 241.6C348.196 240.867 347.949 240.287 347.456 239.86C346.976 239.433 346.349 239.22 345.576 239.22C344.763 239.22 344.029 239.48 343.376 240C342.723 240.52 342.276 241.227 342.036 242.12H348.156ZM369.076 238.74C368.956 239.447 368.669 240.113 368.216 240.74C367.776 241.367 367.156 241.88 366.356 242.28C365.556 242.667 364.582 242.86 363.436 242.86H360.916L359.916 248.5H357.636L360.096 234.6H364.896C366.296 234.6 367.356 234.913 368.076 235.54C368.796 236.153 369.156 236.96 369.156 237.96C369.156 238.133 369.129 238.393 369.076 238.74ZM363.756 241.08C364.622 241.08 365.302 240.873 365.796 240.46C366.302 240.047 366.616 239.473 366.736 238.74C366.776 238.54 366.796 238.347 366.796 238.16C366.796 237.6 366.609 237.167 366.236 236.86C365.876 236.54 365.322 236.38 364.576 236.38H362.056L361.236 241.08H363.756ZM373.41 239.42C373.864 238.753 374.397 238.233 375.01 237.86C375.637 237.487 376.33 237.3 377.09 237.3L376.67 239.66H376.09C375.21 239.66 374.504 239.88 373.97 240.32C373.437 240.76 373.064 241.52 372.85 242.6L371.81 248.5H369.53L371.47 237.48H373.75L373.41 239.42ZM383.926 237.3C385.299 237.3 386.393 237.687 387.206 238.46C388.033 239.233 388.446 240.273 388.446 241.58C388.446 241.887 388.413 242.253 388.346 242.68C388.293 242.973 388.199 243.333 388.066 243.76H379.646C379.633 243.853 379.626 243.993 379.626 244.18C379.626 244.967 379.866 245.593 380.346 246.06C380.839 246.527 381.479 246.76 382.266 246.76C383.506 246.76 384.459 246.247 385.126 245.22H387.586C387.079 246.233 386.333 247.067 385.346 247.72C384.359 248.36 383.219 248.68 381.926 248.68C381.006 248.68 380.199 248.5 379.506 248.14C378.813 247.78 378.273 247.267 377.886 246.6C377.499 245.92 377.306 245.127 377.306 244.22C377.306 243.833 377.346 243.42 377.426 242.98C377.626 241.847 378.033 240.853 378.646 240C379.259 239.133 380.019 238.467 380.926 238C381.846 237.533 382.846 237.3 383.926 237.3ZM386.066 242.12C386.093 241.88 386.106 241.707 386.106 241.6C386.106 240.867 385.859 240.287 385.366 239.86C384.886 239.433 384.259 239.22 383.486 239.22C382.673 239.22 381.939 239.48 381.286 240C380.633 240.52 380.186 241.227 379.946 242.12H386.066ZM393.61 248.68C392.85 248.68 392.157 248.553 391.53 248.3C390.903 248.033 390.41 247.667 390.05 247.2C389.69 246.72 389.51 246.173 389.51 245.56C389.51 245.453 389.523 245.307 389.55 245.12H391.77C391.717 245.627 391.87 246.047 392.23 246.38C392.59 246.713 393.097 246.88 393.75 246.88C394.39 246.88 394.917 246.767 395.33 246.54C395.743 246.313 395.95 245.98 395.95 245.54C395.95 245.167 395.777 244.867 395.43 244.64C395.097 244.413 394.557 244.16 393.81 243.88C393.103 243.6 392.53 243.34 392.09 243.1C391.65 242.86 391.27 242.533 390.95 242.12C390.63 241.693 390.47 241.167 390.47 240.54C390.47 239.9 390.65 239.34 391.01 238.86C391.383 238.367 391.897 237.987 392.55 237.72C393.217 237.44 393.977 237.3 394.83 237.3C395.603 237.3 396.29 237.433 396.89 237.7C397.503 237.953 397.977 238.32 398.31 238.8C398.657 239.267 398.83 239.807 398.83 240.42C398.83 240.607 398.823 240.747 398.81 240.84H396.65C396.703 240.32 396.55 239.9 396.19 239.58C395.843 239.26 395.343 239.1 394.69 239.1C394.117 239.1 393.65 239.22 393.29 239.46C392.943 239.7 392.77 240.027 392.77 240.44C392.77 240.853 392.95 241.187 393.31 241.44C393.67 241.68 394.223 241.947 394.97 242.24C395.65 242.507 396.203 242.76 396.63 243C397.057 243.24 397.423 243.56 397.73 243.96C398.037 244.36 398.19 244.86 398.19 245.46C398.19 246.113 397.99 246.687 397.59 247.18C397.203 247.66 396.663 248.033 395.97 248.3C395.277 248.553 394.49 248.68 393.61 248.68ZM406.953 237.3C408.327 237.3 409.42 237.687 410.233 238.46C411.06 239.233 411.473 240.273 411.473 241.58C411.473 241.887 411.44 242.253 411.373 242.68C411.32 242.973 411.227 243.333 411.093 243.76H402.673C402.66 243.853 402.653 243.993 402.653 244.18C402.653 244.967 402.893 245.593 403.373 246.06C403.867 246.527 404.507 246.76 405.293 246.76C406.533 246.76 407.487 246.247 408.153 245.22H410.613C410.107 246.233 409.36 247.067 408.373 247.72C407.387 248.36 406.247 248.68 404.953 248.68C404.033 248.68 403.227 248.5 402.533 248.14C401.84 247.78 401.3 247.267 400.913 246.6C400.527 245.92 400.333 245.127 400.333 244.22C400.333 243.833 400.373 243.42 400.453 242.98C400.653 241.847 401.06 240.853 401.673 240C402.287 239.133 403.047 238.467 403.953 238C404.873 237.533 405.873 237.3 406.953 237.3ZM409.093 242.12C409.12 241.88 409.133 241.707 409.133 241.6C409.133 240.867 408.887 240.287 408.393 239.86C407.913 239.433 407.287 239.22 406.513 239.22C405.7 239.22 404.967 239.48 404.313 240C403.66 240.52 403.213 241.227 402.973 242.12H409.093ZM420.117 237.3C421.277 237.3 422.197 237.613 422.877 238.24C423.571 238.853 423.917 239.74 423.917 240.9C423.917 241.193 423.884 241.56 423.817 242L422.657 248.5H420.397L421.497 242.34C421.551 241.967 421.577 241.7 421.577 241.54C421.577 240.807 421.371 240.247 420.957 239.86C420.557 239.473 419.997 239.28 419.277 239.28C418.411 239.28 417.677 239.547 417.077 240.08C416.491 240.6 416.117 241.353 415.957 242.34V242.28L414.857 248.5H412.577L414.517 237.48H416.797L416.577 238.76C417.031 238.307 417.564 237.953 418.177 237.7C418.804 237.433 419.451 237.3 420.117 237.3ZM428.765 245.44C428.739 245.627 428.725 245.747 428.725 245.8C428.725 246.08 428.812 246.287 428.985 246.42C429.159 246.54 429.445 246.6 429.845 246.6H431.245L430.905 248.5H429.105C428.225 248.5 427.552 248.327 427.085 247.98C426.619 247.62 426.385 247.053 426.385 246.28C426.385 245.987 426.412 245.707 426.465 245.44L427.545 239.34H426.245L426.565 237.48H427.885L428.365 234.74H430.665L430.185 237.48H432.845L432.525 239.34H429.845L428.765 245.44ZM439.727 237.3C441.1 237.3 442.194 237.687 443.007 238.46C443.834 239.233 444.247 240.273 444.247 241.58C444.247 241.887 444.214 242.253 444.147 242.68C444.094 242.973 444 243.333 443.867 243.76H435.447C435.434 243.853 435.427 243.993 435.427 244.18C435.427 244.967 435.667 245.593 436.147 246.06C436.64 246.527 437.28 246.76 438.067 246.76C439.307 246.76 440.26 246.247 440.927 245.22H443.387C442.88 246.233 442.134 247.067 441.147 247.72C440.16 248.36 439.02 248.68 437.727 248.68C436.807 248.68 436 248.5 435.307 248.14C434.614 247.78 434.074 247.267 433.687 246.6C433.3 245.92 433.107 245.127 433.107 244.22C433.107 243.833 433.147 243.42 433.227 242.98C433.427 241.847 433.834 240.853 434.447 240C435.06 239.133 435.82 238.467 436.727 238C437.647 237.533 438.647 237.3 439.727 237.3ZM441.867 242.12C441.894 241.88 441.907 241.707 441.907 241.6C441.907 240.867 441.66 240.287 441.167 239.86C440.687 239.433 440.06 239.22 439.287 239.22C438.474 239.22 437.74 239.48 437.087 240C436.434 240.52 435.987 241.227 435.747 242.12H441.867ZM445.571 242.94C445.771 241.833 446.171 240.853 446.771 240C447.384 239.147 448.131 238.487 449.011 238.02C449.891 237.54 450.817 237.3 451.791 237.3C452.511 237.3 453.191 237.46 453.831 237.78C454.471 238.087 454.957 238.5 455.291 239.02L456.231 233.7H458.531L455.911 248.5H453.611L453.911 246.84C453.431 247.387 452.831 247.833 452.111 248.18C451.404 248.513 450.624 248.68 449.771 248.68C448.931 248.68 448.184 248.493 447.531 248.12C446.877 247.747 446.364 247.22 445.991 246.54C445.631 245.847 445.451 245.053 445.451 244.16C445.451 243.76 445.491 243.353 445.571 242.94ZM454.591 242.98C454.644 242.727 454.671 242.453 454.671 242.16C454.671 241.267 454.404 240.567 453.871 240.06C453.351 239.54 452.697 239.28 451.911 239.28C451.324 239.28 450.751 239.427 450.191 239.72C449.631 240 449.144 240.42 448.731 240.98C448.317 241.527 448.044 242.18 447.911 242.94C447.857 243.193 447.831 243.467 447.831 243.76C447.831 244.667 448.091 245.387 448.611 245.92C449.144 246.44 449.804 246.7 450.591 246.7C451.177 246.7 451.751 246.553 452.311 246.26C452.871 245.967 453.357 245.54 453.771 244.98C454.184 244.407 454.457 243.74 454.591 242.98ZM476.341 234.6L476.021 236.38H472.321L470.181 248.5H467.901L470.041 236.38H466.321L466.641 234.6H476.341ZM481.01 248.68C480.077 248.68 479.257 248.487 478.55 248.1C477.844 247.713 477.29 247.167 476.89 246.46C476.504 245.753 476.31 244.947 476.31 244.04C476.31 242.8 476.597 241.667 477.17 240.64C477.757 239.613 478.557 238.8 479.57 238.2C480.597 237.6 481.737 237.3 482.99 237.3C483.924 237.3 484.75 237.5 485.47 237.9C486.19 238.287 486.75 238.833 487.15 239.54C487.564 240.233 487.77 241.04 487.77 241.96C487.77 243.2 487.47 244.333 486.87 245.36C486.27 246.387 485.457 247.2 484.43 247.8C483.404 248.387 482.264 248.68 481.01 248.68ZM481.29 246.76C482.05 246.76 482.744 246.547 483.37 246.12C484.01 245.68 484.51 245.107 484.87 244.4C485.23 243.68 485.41 242.913 485.41 242.1C485.41 241.18 485.15 240.473 484.63 239.98C484.11 239.473 483.457 239.22 482.67 239.22C481.897 239.22 481.204 239.44 480.59 239.88C479.99 240.307 479.517 240.887 479.17 241.62C478.837 242.34 478.67 243.113 478.67 243.94C478.67 244.833 478.91 245.527 479.39 246.02C479.884 246.513 480.517 246.76 481.29 246.76Z" fill="black"/>
<path d="M205.067 331.84C205.717 331.84 206.294 331.979 206.799 332.257C207.315 332.536 207.717 332.948 208.006 333.494C208.305 334.041 208.454 334.701 208.454 335.474V340.5H206.707V335.737C206.707 334.974 206.516 334.391 206.134 333.989C205.753 333.577 205.232 333.371 204.572 333.371C203.913 333.371 203.387 333.577 202.995 333.989C202.614 334.391 202.423 334.974 202.423 335.737V340.5H200.66V329.056H202.423V332.969C202.722 332.608 203.098 332.329 203.552 332.134C204.016 331.938 204.521 331.84 205.067 331.84ZM210.115 336.201C210.115 335.345 210.291 334.587 210.641 333.927C211.002 333.268 211.486 332.757 212.095 332.396C212.713 332.025 213.394 331.84 214.136 331.84C214.806 331.84 215.389 331.974 215.884 332.242C216.389 332.5 216.791 332.824 217.09 333.216V331.979H218.868V340.5H217.09V339.232C216.791 339.634 216.384 339.969 215.868 340.237C215.353 340.505 214.765 340.639 214.105 340.639C213.373 340.639 212.703 340.454 212.095 340.082C211.486 339.701 211.002 339.175 210.641 338.505C210.291 337.825 210.115 337.057 210.115 336.201ZM217.09 336.232C217.09 335.644 216.966 335.134 216.719 334.701C216.482 334.268 216.167 333.938 215.775 333.711C215.384 333.484 214.961 333.371 214.507 333.371C214.054 333.371 213.631 333.484 213.239 333.711C212.847 333.927 212.528 334.252 212.28 334.685C212.043 335.108 211.925 335.613 211.925 336.201C211.925 336.788 212.043 337.304 212.28 337.747C212.528 338.191 212.847 338.531 213.239 338.768C213.641 338.995 214.064 339.108 214.507 339.108C214.961 339.108 215.384 338.995 215.775 338.768C216.167 338.541 216.482 338.211 216.719 337.778C216.966 337.335 217.09 336.819 217.09 336.232ZM224.277 340.639C223.607 340.639 223.004 340.521 222.468 340.283C221.942 340.036 221.524 339.706 221.215 339.294C220.906 338.871 220.741 338.402 220.72 337.886H222.545C222.576 338.247 222.746 338.551 223.055 338.799C223.375 339.036 223.772 339.155 224.246 339.155C224.741 339.155 225.122 339.062 225.39 338.876C225.669 338.68 225.808 338.433 225.808 338.134C225.808 337.814 225.653 337.577 225.344 337.423C225.045 337.268 224.566 337.098 223.906 336.912C223.267 336.737 222.746 336.567 222.344 336.402C221.942 336.237 221.591 335.984 221.292 335.644C221.004 335.304 220.859 334.855 220.859 334.299C220.859 333.845 220.993 333.433 221.261 333.061C221.529 332.68 221.911 332.381 222.406 332.164C222.911 331.948 223.488 331.84 224.138 331.84C225.107 331.84 225.885 332.087 226.473 332.582C227.071 333.067 227.39 333.732 227.432 334.577H225.669C225.638 334.196 225.483 333.891 225.205 333.665C224.926 333.438 224.55 333.324 224.076 333.324C223.612 333.324 223.256 333.412 223.009 333.587C222.761 333.763 222.638 333.994 222.638 334.283C222.638 334.51 222.72 334.701 222.885 334.855C223.05 335.01 223.251 335.134 223.488 335.227C223.725 335.309 224.076 335.417 224.54 335.551C225.158 335.716 225.664 335.886 226.055 336.062C226.457 336.227 226.803 336.474 227.091 336.804C227.38 337.134 227.53 337.572 227.54 338.118C227.54 338.603 227.406 339.036 227.138 339.417C226.87 339.799 226.488 340.098 225.993 340.314C225.509 340.531 224.937 340.639 224.277 340.639ZM236.555 340.639C235.885 340.639 235.282 340.521 234.746 340.283C234.22 340.036 233.802 339.706 233.493 339.294C233.184 338.871 233.019 338.402 232.998 337.886H234.823C234.854 338.247 235.024 338.551 235.333 338.799C235.653 339.036 236.05 339.155 236.524 339.155C237.019 339.155 237.4 339.062 237.669 338.876C237.947 338.68 238.086 338.433 238.086 338.134C238.086 337.814 237.931 337.577 237.622 337.423C237.323 337.268 236.844 337.098 236.184 336.912C235.545 336.737 235.024 336.567 234.622 336.402C234.22 336.237 233.869 335.984 233.57 335.644C233.282 335.304 233.137 334.855 233.137 334.299C233.137 333.845 233.271 333.433 233.539 333.061C233.808 332.68 234.189 332.381 234.684 332.164C235.189 331.948 235.766 331.84 236.416 331.84C237.385 331.84 238.163 332.087 238.751 332.582C239.349 333.067 239.669 333.732 239.71 334.577H237.947C237.916 334.196 237.761 333.891 237.483 333.665C237.205 333.438 236.828 333.324 236.354 333.324C235.89 333.324 235.534 333.412 235.287 333.587C235.04 333.763 234.916 333.994 234.916 334.283C234.916 334.51 234.998 334.701 235.163 334.855C235.328 335.01 235.529 335.134 235.766 335.227C236.004 335.309 236.354 335.417 236.818 335.551C237.437 335.716 237.942 335.886 238.334 336.062C238.736 336.227 239.081 336.474 239.37 336.804C239.658 337.134 239.808 337.572 239.818 338.118C239.818 338.603 239.684 339.036 239.416 339.417C239.148 339.799 238.767 340.098 238.272 340.314C237.787 340.531 237.215 340.639 236.555 340.639ZM249.44 331.979V340.5H247.677V339.495C247.399 339.845 247.033 340.124 246.579 340.33C246.136 340.526 245.661 340.624 245.156 340.624C244.486 340.624 243.883 340.485 243.347 340.206C242.821 339.928 242.404 339.515 242.094 338.969C241.795 338.423 241.646 337.763 241.646 336.989V331.979H243.393V336.727C243.393 337.49 243.584 338.077 243.965 338.49C244.347 338.892 244.868 339.093 245.527 339.093C246.187 339.093 246.708 338.892 247.089 338.49C247.481 338.077 247.677 337.49 247.677 336.727V331.979H249.44ZM251.178 336.232C251.178 335.355 251.354 334.587 251.704 333.927C252.065 333.257 252.56 332.742 253.189 332.381C253.818 332.02 254.54 331.84 255.354 331.84C256.385 331.84 257.236 332.087 257.906 332.582C258.586 333.067 259.045 333.763 259.282 334.67H257.38C257.225 334.247 256.978 333.917 256.638 333.68C256.297 333.443 255.869 333.324 255.354 333.324C254.632 333.324 254.055 333.582 253.622 334.098C253.199 334.603 252.988 335.314 252.988 336.232C252.988 337.149 253.199 337.866 253.622 338.381C254.055 338.897 254.632 339.155 255.354 339.155C256.375 339.155 257.05 338.706 257.38 337.809H259.282C259.035 338.675 258.571 339.366 257.89 339.881C257.21 340.387 256.364 340.639 255.354 340.639C254.54 340.639 253.818 340.459 253.189 340.098C252.56 339.727 252.065 339.211 251.704 338.551C251.354 337.881 251.178 337.108 251.178 336.232ZM260.451 336.232C260.451 335.355 260.627 334.587 260.977 333.927C261.338 333.257 261.833 332.742 262.462 332.381C263.091 332.02 263.812 331.84 264.627 331.84C265.658 331.84 266.508 332.087 267.179 332.582C267.859 333.067 268.318 333.763 268.555 334.67H266.653C266.498 334.247 266.251 333.917 265.91 333.68C265.57 333.443 265.142 333.324 264.627 333.324C263.905 333.324 263.328 333.582 262.895 334.098C262.472 334.603 262.261 335.314 262.261 336.232C262.261 337.149 262.472 337.866 262.895 338.381C263.328 338.897 263.905 339.155 264.627 339.155C265.647 339.155 266.323 338.706 266.653 337.809H268.555C268.307 338.675 267.843 339.366 267.163 339.881C266.483 340.387 265.637 340.639 264.627 340.639C263.812 340.639 263.091 340.459 262.462 340.098C261.833 339.727 261.338 339.211 260.977 338.551C260.627 337.881 260.451 337.108 260.451 336.232ZM278.122 336.031C278.122 336.35 278.101 336.639 278.06 336.897H271.549C271.601 337.577 271.853 338.124 272.307 338.536C272.76 338.948 273.317 339.155 273.977 339.155C274.925 339.155 275.596 338.758 275.987 337.964H277.89C277.632 338.747 277.163 339.392 276.482 339.897C275.812 340.392 274.977 340.639 273.977 340.639C273.162 340.639 272.43 340.459 271.781 340.098C271.142 339.727 270.637 339.211 270.265 338.551C269.905 337.881 269.724 337.108 269.724 336.232C269.724 335.355 269.899 334.587 270.25 333.927C270.611 333.257 271.111 332.742 271.75 332.381C272.4 332.02 273.142 331.84 273.977 331.84C274.781 331.84 275.498 332.015 276.127 332.366C276.755 332.716 277.245 333.211 277.596 333.85C277.946 334.479 278.122 335.206 278.122 336.031ZM276.281 335.474C276.271 334.824 276.039 334.304 275.585 333.912C275.132 333.52 274.57 333.324 273.9 333.324C273.291 333.324 272.771 333.52 272.338 333.912C271.905 334.293 271.647 334.814 271.564 335.474H276.281ZM282.949 340.639C282.279 340.639 281.676 340.521 281.14 340.283C280.614 340.036 280.197 339.706 279.887 339.294C279.578 338.871 279.413 338.402 279.393 337.886H281.217C281.248 338.247 281.418 338.551 281.728 338.799C282.047 339.036 282.444 339.155 282.919 339.155C283.413 339.155 283.795 339.062 284.063 338.876C284.341 338.68 284.48 338.433 284.48 338.134C284.48 337.814 284.326 337.577 284.017 337.423C283.718 337.268 283.238 337.098 282.578 336.912C281.939 336.737 281.418 336.567 281.016 336.402C280.614 336.237 280.264 335.984 279.965 335.644C279.676 335.304 279.532 334.855 279.532 334.299C279.532 333.845 279.666 333.433 279.934 333.061C280.202 332.68 280.583 332.381 281.078 332.164C281.583 331.948 282.161 331.84 282.81 331.84C283.779 331.84 284.558 332.087 285.145 332.582C285.743 333.067 286.063 333.732 286.104 334.577H284.341C284.31 334.196 284.156 333.891 283.877 333.665C283.599 333.438 283.223 333.324 282.748 333.324C282.284 333.324 281.929 333.412 281.681 333.587C281.434 333.763 281.31 333.994 281.31 334.283C281.31 334.51 281.393 334.701 281.558 334.855C281.723 335.01 281.924 335.134 282.161 335.227C282.398 335.309 282.748 335.417 283.212 335.551C283.831 335.716 284.336 335.886 284.728 336.062C285.13 336.227 285.475 336.474 285.764 336.804C286.053 337.134 286.202 337.572 286.213 338.118C286.213 338.603 286.078 339.036 285.81 339.417C285.542 339.799 285.161 340.098 284.666 340.314C284.181 340.531 283.609 340.639 282.949 340.639ZM291.21 340.639C290.54 340.639 289.937 340.521 289.401 340.283C288.875 340.036 288.458 339.706 288.148 339.294C287.839 338.871 287.674 338.402 287.654 337.886H289.478C289.509 338.247 289.679 338.551 289.989 338.799C290.308 339.036 290.705 339.155 291.179 339.155C291.674 339.155 292.056 339.062 292.324 338.876C292.602 338.68 292.741 338.433 292.741 338.134C292.741 337.814 292.587 337.577 292.277 337.423C291.979 337.268 291.499 337.098 290.839 336.912C290.2 336.737 289.679 336.567 289.277 336.402C288.875 336.237 288.525 335.984 288.226 335.644C287.937 335.304 287.793 334.855 287.793 334.299C287.793 333.845 287.927 333.433 288.195 333.061C288.463 332.68 288.844 332.381 289.339 332.164C289.844 331.948 290.422 331.84 291.071 331.84C292.04 331.84 292.819 332.087 293.406 332.582C294.004 333.067 294.324 333.732 294.365 334.577H292.602C292.571 334.196 292.417 333.891 292.138 333.665C291.86 333.438 291.484 333.324 291.009 333.324C290.545 333.324 290.19 333.412 289.942 333.587C289.695 333.763 289.571 333.994 289.571 334.283C289.571 334.51 289.654 334.701 289.819 334.855C289.984 335.01 290.185 335.134 290.422 335.227C290.659 335.309 291.009 335.417 291.473 335.551C292.092 335.716 292.597 335.886 292.989 336.062C293.391 336.227 293.736 336.474 294.025 336.804C294.314 337.134 294.463 337.572 294.473 338.118C294.473 338.603 294.339 339.036 294.071 339.417C293.803 339.799 293.422 340.098 292.927 340.314C292.442 340.531 291.87 340.639 291.21 340.639ZM299.951 333.417H298.373V340.5H296.595V333.417H295.59V331.979H296.595V331.376C296.595 330.396 296.853 329.685 297.368 329.242C297.894 328.788 298.714 328.561 299.827 328.561V330.03C299.291 330.03 298.915 330.133 298.698 330.34C298.482 330.536 298.373 330.881 298.373 331.376V331.979H299.951V333.417ZM309.23 331.979V340.5H307.467V339.495C307.189 339.845 306.823 340.124 306.369 340.33C305.926 340.526 305.452 340.624 304.946 340.624C304.276 340.624 303.673 340.485 303.137 340.206C302.611 339.928 302.194 339.515 301.884 338.969C301.585 338.423 301.436 337.763 301.436 336.989V331.979H303.183V336.727C303.183 337.49 303.374 338.077 303.756 338.49C304.137 338.892 304.658 339.093 305.318 339.093C305.977 339.093 306.498 338.892 306.88 338.49C307.271 338.077 307.467 337.49 307.467 336.727V331.979H309.23ZM313.319 329.056V340.5H311.556V329.056H313.319ZM317.397 329.056V340.5H315.634V329.056H317.397ZM327.382 331.979L322.155 344.505H320.33L322.062 340.361L318.706 331.979H320.67L323.067 338.474L325.557 331.979H327.382ZM332.142 336.232C332.142 335.355 332.317 334.587 332.668 333.927C333.029 333.257 333.524 332.742 334.153 332.381C334.781 332.02 335.503 331.84 336.318 331.84C337.349 331.84 338.199 332.087 338.869 332.582C339.55 333.067 340.009 333.763 340.246 334.67H338.343C338.189 334.247 337.941 333.917 337.601 333.68C337.261 333.443 336.833 333.324 336.318 333.324C335.596 333.324 335.019 333.582 334.586 334.098C334.163 334.603 333.951 335.314 333.951 336.232C333.951 337.149 334.163 337.866 334.586 338.381C335.019 338.897 335.596 339.155 336.318 339.155C337.338 339.155 338.014 338.706 338.343 337.809H340.246C339.998 338.675 339.534 339.366 338.854 339.881C338.173 340.387 337.328 340.639 336.318 340.639C335.503 340.639 334.781 340.459 334.153 340.098C333.524 339.727 333.029 339.211 332.668 338.551C332.317 337.881 332.142 337.108 332.142 336.232ZM345.699 340.639C344.895 340.639 344.168 340.459 343.518 340.098C342.869 339.727 342.358 339.211 341.987 338.551C341.616 337.881 341.43 337.108 341.43 336.232C341.43 335.366 341.621 334.598 342.003 333.927C342.384 333.257 342.905 332.742 343.565 332.381C344.224 332.02 344.962 331.84 345.776 331.84C346.59 331.84 347.328 332.02 347.987 332.381C348.647 332.742 349.168 333.257 349.549 333.927C349.931 334.598 350.122 335.366 350.122 336.232C350.122 337.098 349.926 337.866 349.534 338.536C349.142 339.206 348.606 339.727 347.926 340.098C347.255 340.459 346.513 340.639 345.699 340.639ZM345.699 339.108C346.152 339.108 346.575 339 346.967 338.783C347.369 338.567 347.694 338.242 347.941 337.809C348.189 337.376 348.312 336.85 348.312 336.232C348.312 335.613 348.194 335.092 347.957 334.67C347.719 334.237 347.405 333.912 347.013 333.695C346.621 333.479 346.199 333.371 345.745 333.371C345.291 333.371 344.869 333.479 344.477 333.695C344.095 333.912 343.791 334.237 343.565 334.67C343.338 335.092 343.224 335.613 343.224 336.232C343.224 337.149 343.456 337.861 343.92 338.366C344.394 338.861 344.987 339.108 345.699 339.108ZM362.179 331.84C362.85 331.84 363.448 331.979 363.973 332.257C364.509 332.536 364.927 332.948 365.226 333.494C365.535 334.041 365.69 334.701 365.69 335.474V340.5H363.942V335.737C363.942 334.974 363.752 334.391 363.37 333.989C362.989 333.577 362.468 333.371 361.808 333.371C361.148 333.371 360.623 333.577 360.231 333.989C359.849 334.391 359.659 334.974 359.659 335.737V340.5H357.911V335.737C357.911 334.974 357.72 334.391 357.339 333.989C356.957 333.577 356.437 333.371 355.777 333.371C355.117 333.371 354.591 333.577 354.2 333.989C353.818 334.391 353.627 334.974 353.627 335.737V340.5H351.864V331.979H353.627V332.953C353.916 332.603 354.282 332.329 354.725 332.134C355.169 331.938 355.643 331.84 356.148 331.84C356.829 331.84 357.437 331.984 357.973 332.273C358.509 332.561 358.922 332.979 359.21 333.525C359.468 333.01 359.87 332.603 360.416 332.304C360.963 331.994 361.551 331.84 362.179 331.84ZM369.696 333.232C369.995 332.84 370.403 332.51 370.918 332.242C371.433 331.974 372.016 331.84 372.666 331.84C373.408 331.84 374.083 332.025 374.691 332.396C375.31 332.757 375.795 333.268 376.145 333.927C376.496 334.587 376.671 335.345 376.671 336.201C376.671 337.057 376.496 337.825 376.145 338.505C375.795 339.175 375.31 339.701 374.691 340.082C374.083 340.454 373.408 340.639 372.666 340.639C372.016 340.639 371.439 340.51 370.933 340.253C370.428 339.985 370.016 339.655 369.696 339.263V344.552H367.933V331.979H369.696V333.232ZM374.877 336.201C374.877 335.613 374.753 335.108 374.506 334.685C374.269 334.252 373.949 333.927 373.547 333.711C373.155 333.484 372.733 333.371 372.279 333.371C371.836 333.371 371.413 333.484 371.011 333.711C370.619 333.938 370.299 334.268 370.052 334.701C369.815 335.134 369.696 335.644 369.696 336.232C369.696 336.819 369.815 337.335 370.052 337.778C370.299 338.211 370.619 338.541 371.011 338.768C371.413 338.995 371.836 339.108 372.279 339.108C372.733 339.108 373.155 338.995 373.547 338.768C373.949 338.531 374.269 338.191 374.506 337.747C374.753 337.304 374.877 336.788 374.877 336.201ZM380.177 329.056V340.5H378.414V329.056H380.177ZM390.302 336.031C390.302 336.35 390.281 336.639 390.24 336.897H383.729C383.781 337.577 384.033 338.124 384.487 338.536C384.941 338.948 385.497 339.155 386.157 339.155C387.106 339.155 387.776 338.758 388.168 337.964H390.07C389.812 338.747 389.343 339.392 388.662 339.897C387.992 340.392 387.157 340.639 386.157 340.639C385.343 340.639 384.611 340.459 383.961 340.098C383.322 339.727 382.817 339.211 382.446 338.551C382.085 337.881 381.904 337.108 381.904 336.232C381.904 335.355 382.08 334.587 382.43 333.927C382.791 333.257 383.291 332.742 383.93 332.381C384.58 332.02 385.322 331.84 386.157 331.84C386.961 331.84 387.678 332.015 388.307 332.366C388.936 332.716 389.425 333.211 389.776 333.85C390.126 334.479 390.302 335.206 390.302 336.031ZM388.461 335.474C388.451 334.824 388.219 334.304 387.765 333.912C387.312 333.52 386.75 333.324 386.08 333.324C385.471 333.324 384.951 333.52 384.518 333.912C384.085 334.293 383.827 334.814 383.745 335.474H388.461ZM394.093 333.417V338.134C394.093 338.453 394.166 338.685 394.31 338.83C394.465 338.964 394.722 339.031 395.083 339.031H396.166V340.5H394.774C393.98 340.5 393.372 340.314 392.949 339.943C392.526 339.572 392.315 338.969 392.315 338.134V333.417H391.31V331.979H392.315V329.86H394.093V331.979H396.166V333.417H394.093ZM405.6 336.031C405.6 336.35 405.58 336.639 405.538 336.897H399.028C399.079 337.577 399.332 338.124 399.786 338.536C400.239 338.948 400.796 339.155 401.456 339.155C402.404 339.155 403.074 338.758 403.466 337.964H405.368C405.111 338.747 404.641 339.392 403.961 339.897C403.291 340.392 402.456 340.639 401.456 340.639C400.641 340.639 399.909 340.459 399.26 340.098C398.621 339.727 398.115 339.211 397.744 338.551C397.383 337.881 397.203 337.108 397.203 336.232C397.203 335.355 397.378 334.587 397.729 333.927C398.09 333.257 398.59 332.742 399.229 332.381C399.878 332.02 400.621 331.84 401.456 331.84C402.26 331.84 402.976 332.015 403.605 332.366C404.234 332.716 404.724 333.211 405.075 333.85C405.425 334.479 405.6 335.206 405.6 336.031ZM403.76 335.474C403.75 334.824 403.518 334.304 403.064 333.912C402.61 333.52 402.049 333.324 401.378 333.324C400.77 333.324 400.249 333.52 399.816 333.912C399.383 334.293 399.126 334.814 399.043 335.474H403.76ZM406.748 336.201C406.748 335.345 406.923 334.587 407.273 333.927C407.634 333.268 408.119 332.757 408.727 332.396C409.346 332.025 410.031 331.84 410.784 331.84C411.341 331.84 411.887 331.963 412.423 332.211C412.97 332.448 413.403 332.768 413.722 333.17V329.056H415.501V340.5H413.722V339.216C413.434 339.629 413.031 339.969 412.516 340.237C412.011 340.505 411.428 340.639 410.768 340.639C410.026 340.639 409.346 340.454 408.727 340.082C408.119 339.701 407.634 339.175 407.273 338.505C406.923 337.825 406.748 337.057 406.748 336.201ZM413.722 336.232C413.722 335.644 413.599 335.134 413.351 334.701C413.114 334.268 412.799 333.938 412.408 333.711C412.016 333.484 411.593 333.371 411.14 333.371C410.686 333.371 410.263 333.484 409.871 333.711C409.48 333.927 409.16 334.252 408.913 334.685C408.676 335.108 408.557 335.613 408.557 336.201C408.557 336.788 408.676 337.304 408.913 337.747C409.16 338.191 409.48 338.531 409.871 338.768C410.274 338.995 410.696 339.108 411.14 339.108C411.593 339.108 412.016 338.995 412.408 338.768C412.799 338.541 413.114 338.211 413.351 337.778C413.599 337.335 413.722 336.819 413.722 336.232ZM423.89 333.417V338.134C423.89 338.453 423.963 338.685 424.107 338.83C424.261 338.964 424.519 339.031 424.88 339.031H425.963V340.5H424.571C423.777 340.5 423.169 340.314 422.746 339.943C422.323 339.572 422.112 338.969 422.112 338.134V333.417H421.107V331.979H422.112V329.86H423.89V331.979H425.963V333.417H423.89ZM431.995 331.84C432.644 331.84 433.222 331.979 433.727 332.257C434.243 332.536 434.645 332.948 434.933 333.494C435.232 334.041 435.382 334.701 435.382 335.474V340.5H433.634V335.737C433.634 334.974 433.444 334.391 433.062 333.989C432.681 333.577 432.16 333.371 431.5 333.371C430.84 333.371 430.314 333.577 429.923 333.989C429.541 334.391 429.35 334.974 429.35 335.737V340.5H427.588V329.056H429.35V332.969C429.649 332.608 430.026 332.329 430.479 332.134C430.943 331.938 431.449 331.84 431.995 331.84ZM445.44 336.031C445.44 336.35 445.42 336.639 445.378 336.897H438.868C438.919 337.577 439.172 338.124 439.626 338.536C440.079 338.948 440.636 339.155 441.296 339.155C442.244 339.155 442.914 338.758 443.306 337.964H445.208C444.951 338.747 444.481 339.392 443.801 339.897C443.131 340.392 442.296 340.639 441.296 340.639C440.481 340.639 439.749 340.459 439.1 340.098C438.461 339.727 437.955 339.211 437.584 338.551C437.223 337.881 437.043 337.108 437.043 336.232C437.043 335.355 437.218 334.587 437.569 333.927C437.93 333.257 438.43 332.742 439.069 332.381C439.718 332.02 440.461 331.84 441.296 331.84C442.1 331.84 442.816 332.015 443.445 332.366C444.074 332.716 444.564 333.211 444.914 333.85C445.265 334.479 445.44 335.206 445.44 336.031ZM443.6 335.474C443.59 334.824 443.358 334.304 442.904 333.912C442.45 333.52 441.889 333.324 441.218 333.324C440.61 333.324 440.089 333.52 439.656 333.912C439.223 334.293 438.966 334.814 438.883 335.474H443.6ZM450.605 336.232C450.605 335.355 450.78 334.587 451.131 333.927C451.491 333.257 451.986 332.742 452.615 332.381C453.244 332.02 453.966 331.84 454.78 331.84C455.811 331.84 456.662 332.087 457.332 332.582C458.012 333.067 458.471 333.763 458.708 334.67H456.806C456.652 334.247 456.404 333.917 456.064 333.68C455.724 333.443 455.296 333.324 454.78 333.324C454.059 333.324 453.481 333.582 453.048 334.098C452.626 334.603 452.414 335.314 452.414 336.232C452.414 337.149 452.626 337.866 453.048 338.381C453.481 338.897 454.059 339.155 454.78 339.155C455.801 339.155 456.476 338.706 456.806 337.809H458.708C458.461 338.675 457.997 339.366 457.317 339.881C456.636 340.387 455.791 340.639 454.78 340.639C453.966 340.639 453.244 340.459 452.615 340.098C451.986 339.727 451.491 339.211 451.131 338.551C450.78 337.881 450.605 337.108 450.605 336.232ZM464.161 340.639C463.357 340.639 462.63 340.459 461.981 340.098C461.331 339.727 460.821 339.211 460.45 338.551C460.079 337.881 459.893 337.108 459.893 336.232C459.893 335.366 460.084 334.598 460.465 333.927C460.847 333.257 461.367 332.742 462.027 332.381C462.687 332.02 463.424 331.84 464.239 331.84C465.053 331.84 465.79 332.02 466.45 332.381C467.11 332.742 467.631 333.257 468.012 333.927C468.394 334.598 468.584 335.366 468.584 336.232C468.584 337.098 468.388 337.866 467.997 338.536C467.605 339.206 467.069 339.727 466.388 340.098C465.718 340.459 464.976 340.639 464.161 340.639ZM464.161 339.108C464.615 339.108 465.038 339 465.429 338.783C465.832 338.567 466.156 338.242 466.404 337.809C466.651 337.376 466.775 336.85 466.775 336.232C466.775 335.613 466.656 335.092 466.419 334.67C466.182 334.237 465.868 333.912 465.476 333.695C465.084 333.479 464.661 333.371 464.208 333.371C463.754 333.371 463.331 333.479 462.94 333.695C462.558 333.912 462.254 334.237 462.027 334.67C461.8 335.092 461.687 335.613 461.687 336.232C461.687 337.149 461.919 337.861 462.383 338.366C462.857 338.861 463.45 339.108 464.161 339.108ZM478.044 331.979V340.5H476.281V339.495C476.003 339.845 475.637 340.124 475.183 340.33C474.74 340.526 474.265 340.624 473.76 340.624C473.09 340.624 472.487 340.485 471.951 340.206C471.425 339.928 471.008 339.515 470.698 338.969C470.399 338.423 470.25 337.763 470.25 336.989V331.979H471.997V336.727C471.997 337.49 472.188 338.077 472.569 338.49C472.951 338.892 473.472 339.093 474.131 339.093C474.791 339.093 475.312 338.892 475.693 338.49C476.085 338.077 476.281 337.49 476.281 336.727V331.979H478.044ZM482.133 333.216C482.391 332.783 482.731 332.448 483.154 332.211C483.587 331.963 484.097 331.84 484.685 331.84V333.665H484.236C483.546 333.665 483.02 333.84 482.659 334.19C482.308 334.541 482.133 335.149 482.133 336.015V340.5H480.37V331.979H482.133V333.216ZM489.398 340.639C488.728 340.639 488.125 340.521 487.589 340.283C487.063 340.036 486.646 339.706 486.336 339.294C486.027 338.871 485.862 338.402 485.841 337.886H487.666C487.697 338.247 487.867 338.551 488.177 338.799C488.496 339.036 488.893 339.155 489.367 339.155C489.862 339.155 490.244 339.062 490.512 338.876C490.79 338.68 490.929 338.433 490.929 338.134C490.929 337.814 490.775 337.577 490.465 337.423C490.166 337.268 489.687 337.098 489.027 336.912C488.388 336.737 487.867 336.567 487.465 336.402C487.063 336.237 486.713 335.984 486.414 335.644C486.125 335.304 485.981 334.855 485.981 334.299C485.981 333.845 486.115 333.433 486.383 333.061C486.651 332.68 487.032 332.381 487.527 332.164C488.032 331.948 488.61 331.84 489.259 331.84C490.228 331.84 491.007 332.087 491.594 332.582C492.192 333.067 492.512 333.732 492.553 334.577H490.79C490.759 334.196 490.605 333.891 490.326 333.665C490.048 333.438 489.672 333.324 489.197 333.324C488.733 333.324 488.378 333.412 488.13 333.587C487.883 333.763 487.759 333.994 487.759 334.283C487.759 334.51 487.842 334.701 488.006 334.855C488.171 335.01 488.372 335.134 488.61 335.227C488.847 335.309 489.197 335.417 489.661 335.551C490.28 335.716 490.785 335.886 491.177 336.062C491.579 336.227 491.924 336.474 492.213 336.804C492.502 337.134 492.651 337.572 492.661 338.118C492.661 338.603 492.527 339.036 492.259 339.417C491.991 339.799 491.61 340.098 491.115 340.314C490.63 340.531 490.058 340.639 489.398 340.639ZM502.376 336.031C502.376 336.35 502.355 336.639 502.314 336.897H495.804C495.855 337.577 496.108 338.124 496.561 338.536C497.015 338.948 497.572 339.155 498.232 339.155C499.18 339.155 499.85 338.758 500.242 337.964H502.144C501.886 338.747 501.417 339.392 500.737 339.897C500.067 340.392 499.232 340.639 498.232 340.639C497.417 340.639 496.685 340.459 496.036 340.098C495.396 339.727 494.891 339.211 494.52 338.551C494.159 337.881 493.979 337.108 493.979 336.232C493.979 335.355 494.154 334.587 494.504 333.927C494.865 333.257 495.365 332.742 496.005 332.381C496.654 332.02 497.396 331.84 498.232 331.84C499.036 331.84 499.752 332.015 500.381 332.366C501.01 332.716 501.5 333.211 501.85 333.85C502.201 334.479 502.376 335.206 502.376 336.031ZM500.536 335.474C500.525 334.824 500.293 334.304 499.84 333.912C499.386 333.52 498.824 333.324 498.154 333.324C497.546 333.324 497.025 333.52 496.592 333.912C496.159 334.293 495.901 334.814 495.819 335.474H500.536ZM508.84 340.608C508.52 340.608 508.252 340.5 508.035 340.283C507.819 340.067 507.711 339.799 507.711 339.479C507.711 339.16 507.819 338.892 508.035 338.675C508.252 338.459 508.52 338.35 508.84 338.35C509.149 338.35 509.412 338.459 509.628 338.675C509.845 338.892 509.953 339.16 509.953 339.479C509.953 339.799 509.845 340.067 509.628 340.283C509.412 340.5 509.149 340.608 508.84 340.608ZM508.84 334.113C508.52 334.113 508.252 334.005 508.035 333.788C507.819 333.572 507.711 333.304 507.711 332.984C507.711 332.665 507.819 332.396 508.035 332.18C508.252 331.963 508.52 331.855 508.84 331.855C509.149 331.855 509.412 331.963 509.628 332.18C509.845 332.396 509.953 332.665 509.953 332.984C509.953 333.304 509.845 333.572 509.628 333.788C509.412 334.005 509.149 334.113 508.84 334.113Z" fill="black"/>
<path d="M138.417 120.5C138.417 94.0363 116.964 72.5833 90.4999 72.5833C64.0363 72.5833 42.5833 94.0363 42.5833 120.5C42.5833 146.964 64.0363 168.417 90.4999 168.417C116.964 168.417 138.417 146.964 138.417 120.5Z" stroke="white" stroke-width="4.16667"/>
<path fill-rule="evenodd" clip-rule="evenodd" d="M90.5 158C95.4246 158 100.301 157.03 104.851 155.145C109.4 153.261 113.534 150.499 117.016 147.016C120.499 143.534 123.261 139.4 125.145 134.851C127.03 130.301 128 125.425 128 120.5C128 115.575 127.03 110.699 125.145 106.149C123.261 101.6 120.499 97.4657 117.016 93.9835C113.534 90.5013 109.4 87.7391 104.851 85.8545C100.301 83.97 95.4246 83 90.5 83C80.5544 83 71.0161 86.9509 63.9835 93.9835C56.9509 101.016 53 110.554 53 120.5C53 130.446 56.9509 139.984 63.9835 147.016C71.0161 154.049 80.5544 158 90.5 158ZM89.5333 135.667L110.367 110.667L103.967 105.333L86.05 126.829L76.7792 117.554L70.8875 123.446L83.3875 135.946L86.6125 139.171L89.5333 135.667Z" fill="white"/>
<path d="M70.2042 28.6519V31.9399H63.3402V35.4919H68.4762V38.6839H63.3402V45.4999H59.2362V28.6519H70.2042ZM74.4252 30.7159C73.7052 30.7159 73.1132 30.5079 72.6492 30.0919C72.2012 29.6599 71.9772 29.1319 71.9772 28.5079C71.9772 27.8679 72.2012 27.3399 72.6492 26.9239C73.1132 26.4919 73.7052 26.2759 74.4252 26.2759C75.1292 26.2759 75.7052 26.4919 76.1532 26.9239C76.6172 27.3399 76.8492 27.8679 76.8492 28.5079C76.8492 29.1319 76.6172 29.6599 76.1532 30.0919C75.7052 30.5079 75.1292 30.7159 74.4252 30.7159ZM76.4652 32.1079V45.4999H72.3612V32.1079H76.4652ZM87.5993 31.9639C89.1673 31.9639 90.4153 32.4759 91.3433 33.4999C92.2873 34.5079 92.7593 35.8999 92.7593 37.6759V45.4999H88.6793V38.2279C88.6793 37.3319 88.4473 36.6359 87.9833 36.1399C87.5193 35.6439 86.8953 35.3959 86.1113 35.3959C85.3273 35.3959 84.7033 35.6439 84.2393 36.1399C83.7753 36.6359 83.5433 37.3319 83.5433 38.2279V45.4999H79.4393V32.1079H83.5433V33.8839C83.9593 33.2919 84.5193 32.8279 85.2233 32.4919C85.9273 32.1399 86.7193 31.9639 87.5993 31.9639ZM94.7952 38.8039C94.7952 37.4119 95.0752 36.1959 95.6352 35.1559C96.2112 34.1159 97.0032 33.3159 98.0112 32.7559C99.0352 32.1959 100.203 31.9159 101.515 31.9159C103.195 31.9159 104.595 32.3559 105.715 33.2359C106.851 34.1159 107.595 35.3559 107.947 36.9559H103.579C103.211 35.9319 102.499 35.4199 101.443 35.4199C100.691 35.4199 100.091 35.7159 99.6432 36.3079C99.1952 36.8839 98.9712 37.7159 98.9712 38.8039C98.9712 39.8919 99.1952 40.7319 99.6432 41.3239C100.091 41.8999 100.691 42.1879 101.443 42.1879C102.499 42.1879 103.211 41.6759 103.579 40.6519H107.947C107.595 42.2199 106.851 43.4519 105.715 44.3479C104.579 45.2439 103.179 45.6919 101.515 45.6919C100.203 45.6919 99.0352 45.4119 98.0112 44.8519C97.0032 44.2919 96.2112 43.4919 95.6352 42.4519C95.0752 41.4119 94.7952 40.1959 94.7952 38.8039ZM123.822 32.1079L115.422 51.8599H111.006L114.078 45.0439L108.63 32.1079H113.214L116.31 40.4839L119.382 32.1079H123.822Z" fill="white"/>
<path d="M200.127 501.812C200.127 500.495 200.412 499.323 200.982 498.297C201.552 497.258 202.344 496.454 203.357 495.884C204.383 495.301 205.542 495.01 206.834 495.01C208.417 495.01 209.773 495.428 210.9 496.264C212.027 497.1 212.781 498.24 213.161 499.684H209.589C209.323 499.127 208.943 498.702 208.449 498.411C207.968 498.12 207.417 497.974 206.796 497.974C205.795 497.974 204.985 498.322 204.364 499.019C203.743 499.716 203.433 500.647 203.433 501.812C203.433 502.977 203.743 503.908 204.364 504.605C204.985 505.302 205.795 505.65 206.796 505.65C207.417 505.65 207.968 505.504 208.449 505.213C208.943 504.922 209.323 504.497 209.589 503.94H213.161C212.781 505.384 212.027 506.524 210.9 507.36C209.773 508.183 208.417 508.595 206.834 508.595C205.542 508.595 204.383 508.31 203.357 507.74C202.344 507.157 201.552 506.353 200.982 505.327C200.412 504.301 200.127 503.129 200.127 501.812ZM225.145 503.028C225.145 503.332 225.126 503.649 225.088 503.978H217.735C217.785 504.637 217.994 505.143 218.362 505.498C218.742 505.84 219.204 506.011 219.749 506.011C220.559 506.011 221.123 505.669 221.44 504.985H224.898C224.72 505.682 224.397 506.309 223.929 506.866C223.473 507.423 222.896 507.86 222.2 508.177C221.503 508.494 220.724 508.652 219.863 508.652C218.824 508.652 217.899 508.43 217.089 507.987C216.278 507.544 215.645 506.91 215.189 506.087C214.733 505.264 214.505 504.301 214.505 503.199C214.505 502.097 214.726 501.134 215.17 500.311C215.626 499.488 216.259 498.854 217.07 498.411C217.88 497.968 218.811 497.746 219.863 497.746C220.889 497.746 221.801 497.961 222.599 498.392C223.397 498.823 224.017 499.437 224.461 500.235C224.917 501.033 225.145 501.964 225.145 503.028ZM221.82 502.173C221.82 501.616 221.63 501.172 221.25 500.843C220.87 500.514 220.395 500.349 219.825 500.349C219.28 500.349 218.818 500.507 218.438 500.824C218.07 501.141 217.842 501.59 217.754 502.173H221.82ZM230.108 499.665C230.488 499.082 230.963 498.626 231.533 498.297C232.103 497.955 232.736 497.784 233.433 497.784V501.223H232.54C231.729 501.223 231.121 501.4 230.716 501.755C230.31 502.097 230.108 502.705 230.108 503.579V508.5H226.859V497.898H230.108V499.665ZM240.895 505.745V508.5H239.242C238.064 508.5 237.145 508.215 236.487 507.645C235.828 507.062 235.499 506.119 235.499 504.814V500.596H234.207V497.898H235.499V495.314H238.748V497.898H240.876V500.596H238.748V504.852C238.748 505.169 238.824 505.397 238.976 505.536C239.128 505.675 239.381 505.745 239.736 505.745H240.895ZM244.338 496.796C243.768 496.796 243.3 496.631 242.932 496.302C242.578 495.96 242.4 495.542 242.4 495.048C242.4 494.541 242.578 494.123 242.932 493.794C243.3 493.452 243.768 493.281 244.338 493.281C244.896 493.281 245.352 493.452 245.706 493.794C246.074 494.123 246.257 494.541 246.257 495.048C246.257 495.542 246.074 495.96 245.706 496.302C245.352 496.631 244.896 496.796 244.338 496.796ZM245.953 497.898V508.5H242.704V497.898H245.953ZM253.628 500.596H251.88V508.5H248.631V500.596H247.453V497.898H248.631V497.594C248.631 496.289 249.005 495.301 249.752 494.63C250.499 493.946 251.595 493.604 253.039 493.604C253.28 493.604 253.457 493.61 253.571 493.623V496.378C252.95 496.34 252.513 496.429 252.26 496.644C252.007 496.859 251.88 497.246 251.88 497.803V497.898H253.628V500.596ZM256.789 496.796C256.219 496.796 255.75 496.631 255.383 496.302C255.028 495.96 254.851 495.542 254.851 495.048C254.851 494.541 255.028 494.123 255.383 493.794C255.75 493.452 256.219 493.281 256.789 493.281C257.346 493.281 257.802 493.452 258.157 493.794C258.524 494.123 258.708 494.541 258.708 495.048C258.708 495.542 258.524 495.96 258.157 496.302C257.802 496.631 257.346 496.796 256.789 496.796ZM258.404 497.898V508.5H255.155V497.898H258.404ZM260.112 503.199C260.112 502.097 260.334 501.134 260.777 500.311C261.233 499.488 261.86 498.854 262.658 498.411C263.469 497.968 264.393 497.746 265.432 497.746C266.762 497.746 267.87 498.094 268.757 498.791C269.656 499.488 270.245 500.469 270.524 501.736H267.066C266.775 500.925 266.211 500.52 265.375 500.52C264.78 500.52 264.305 500.754 263.95 501.223C263.595 501.679 263.418 502.338 263.418 503.199C263.418 504.06 263.595 504.725 263.95 505.194C264.305 505.65 264.78 505.878 265.375 505.878C266.211 505.878 266.775 505.473 267.066 504.662H270.524C270.245 505.903 269.656 506.879 268.757 507.588C267.858 508.297 266.749 508.652 265.432 508.652C264.393 508.652 263.469 508.43 262.658 507.987C261.86 507.544 261.233 506.91 260.777 506.087C260.334 505.264 260.112 504.301 260.112 503.199ZM271.616 503.18C271.616 502.091 271.819 501.134 272.224 500.311C272.642 499.488 273.206 498.854 273.915 498.411C274.624 497.968 275.416 497.746 276.29 497.746C277.037 497.746 277.69 497.898 278.247 498.202C278.817 498.506 279.254 498.905 279.558 499.399V497.898H282.807V508.5H279.558V506.999C279.241 507.493 278.798 507.892 278.228 508.196C277.671 508.5 277.018 508.652 276.271 508.652C275.41 508.652 274.624 508.43 273.915 507.987C273.206 507.531 272.642 506.891 272.224 506.068C271.819 505.232 271.616 504.269 271.616 503.18ZM279.558 503.199C279.558 502.388 279.33 501.749 278.874 501.28C278.431 500.811 277.886 500.577 277.24 500.577C276.594 500.577 276.043 500.811 275.587 501.28C275.144 501.736 274.922 502.369 274.922 503.18C274.922 503.991 275.144 504.637 275.587 505.118C276.043 505.587 276.594 505.821 277.24 505.821C277.886 505.821 278.431 505.587 278.874 505.118C279.33 504.649 279.558 504.01 279.558 503.199ZM291.066 505.745V508.5H289.413C288.235 508.5 287.317 508.215 286.658 507.645C286 507.062 285.67 506.119 285.67 504.814V500.596H284.378V497.898H285.67V495.314H288.919V497.898H291.047V500.596H288.919V504.852C288.919 505.169 288.995 505.397 289.147 505.536C289.299 505.675 289.553 505.745 289.907 505.745H291.066ZM302.87 503.028C302.87 503.332 302.851 503.649 302.813 503.978H295.46C295.511 504.637 295.72 505.143 296.087 505.498C296.467 505.84 296.93 506.011 297.474 506.011C298.285 506.011 298.849 505.669 299.165 504.985H302.623C302.446 505.682 302.123 506.309 301.654 506.866C301.198 507.423 300.622 507.86 299.925 508.177C299.229 508.494 298.45 508.652 297.588 508.652C296.55 508.652 295.625 508.43 294.814 507.987C294.004 507.544 293.37 506.91 292.914 506.087C292.458 505.264 292.23 504.301 292.23 503.199C292.23 502.097 292.452 501.134 292.895 500.311C293.351 499.488 293.985 498.854 294.795 498.411C295.606 497.968 296.537 497.746 297.588 497.746C298.614 497.746 299.526 497.961 300.324 498.392C301.122 498.823 301.743 499.437 302.186 500.235C302.642 501.033 302.87 501.964 302.87 503.028ZM299.545 502.173C299.545 501.616 299.355 501.172 298.975 500.843C298.595 500.514 298.12 500.349 297.55 500.349C297.006 500.349 296.543 500.507 296.163 500.824C295.796 501.141 295.568 501.59 295.479 502.173H299.545ZM320.543 508.5H317.294L311.86 500.273V508.5H308.611V495.162H311.86L317.294 503.427V495.162H320.543V508.5ZM333.367 497.898V508.5H330.118V507.056C329.788 507.525 329.339 507.905 328.769 508.196C328.211 508.475 327.591 508.614 326.907 508.614C326.096 508.614 325.38 508.437 324.76 508.082C324.139 507.715 323.658 507.189 323.316 506.505C322.974 505.821 322.803 505.017 322.803 504.092V497.898H326.033V503.655C326.033 504.364 326.216 504.915 326.584 505.308C326.951 505.701 327.445 505.897 328.066 505.897C328.699 505.897 329.199 505.701 329.567 505.308C329.934 504.915 330.118 504.364 330.118 503.655V497.898H333.367ZM349.228 497.784C350.546 497.784 351.591 498.183 352.363 498.981C353.149 499.779 353.541 500.887 353.541 502.306V508.5H350.311V502.743C350.311 502.059 350.128 501.533 349.76 501.166C349.406 500.786 348.912 500.596 348.278 500.596C347.645 500.596 347.145 500.786 346.777 501.166C346.423 501.533 346.245 502.059 346.245 502.743V508.5H343.015V502.743C343.015 502.059 342.832 501.533 342.464 501.166C342.11 500.786 341.616 500.596 340.982 500.596C340.349 500.596 339.849 500.786 339.481 501.166C339.127 501.533 338.949 502.059 338.949 502.743V508.5H335.7V497.898H338.949V499.228C339.279 498.785 339.709 498.436 340.241 498.183C340.773 497.917 341.375 497.784 342.046 497.784C342.844 497.784 343.554 497.955 344.174 498.297C344.808 498.639 345.302 499.127 345.656 499.76C346.024 499.177 346.524 498.702 347.157 498.335C347.791 497.968 348.481 497.784 349.228 497.784ZM359.063 499.399C359.367 498.905 359.804 498.506 360.374 498.202C360.944 497.898 361.596 497.746 362.331 497.746C363.205 497.746 363.996 497.968 364.706 498.411C365.415 498.854 365.972 499.488 366.378 500.311C366.796 501.134 367.005 502.091 367.005 503.18C367.005 504.269 366.796 505.232 366.378 506.068C365.972 506.891 365.415 507.531 364.706 507.987C363.996 508.43 363.205 508.652 362.331 508.652C361.583 508.652 360.931 508.506 360.374 508.215C359.816 507.911 359.379 507.512 359.063 507.018V508.5H355.814V494.44H359.063V499.399ZM363.699 503.18C363.699 502.369 363.471 501.736 363.015 501.28C362.571 500.811 362.02 500.577 361.362 500.577C360.716 500.577 360.165 500.811 359.709 501.28C359.265 501.749 359.044 502.388 359.044 503.199C359.044 504.01 359.265 504.649 359.709 505.118C360.165 505.587 360.716 505.821 361.362 505.821C362.008 505.821 362.559 505.587 363.015 505.118C363.471 504.637 363.699 503.991 363.699 503.18ZM378.703 503.028C378.703 503.332 378.684 503.649 378.646 503.978H371.293C371.344 504.637 371.553 505.143 371.92 505.498C372.3 505.84 372.763 506.011 373.307 506.011C374.118 506.011 374.682 505.669 374.998 504.985H378.456C378.279 505.682 377.956 506.309 377.487 506.866C377.031 507.423 376.455 507.86 375.758 508.177C375.062 508.494 374.283 508.652 373.421 508.652C372.383 508.652 371.458 508.43 370.647 507.987C369.837 507.544 369.203 506.91 368.747 506.087C368.291 505.264 368.063 504.301 368.063 503.199C368.063 502.097 368.285 501.134 368.728 500.311C369.184 499.488 369.818 498.854 370.628 498.411C371.439 497.968 372.37 497.746 373.421 497.746C374.447 497.746 375.359 497.961 376.157 498.392C376.955 498.823 377.576 499.437 378.019 500.235C378.475 501.033 378.703 501.964 378.703 503.028ZM375.378 502.173C375.378 501.616 375.188 501.172 374.808 500.843C374.428 500.514 373.953 500.349 373.383 500.349C372.839 500.349 372.376 500.507 371.996 500.824C371.629 501.141 371.401 501.59 371.312 502.173H375.378ZM383.666 499.665C384.046 499.082 384.521 498.626 385.091 498.297C385.661 497.955 386.295 497.784 386.991 497.784V501.223H386.098C385.288 501.223 384.68 501.4 384.274 501.755C383.869 502.097 383.666 502.705 383.666 503.579V508.5H380.417V497.898H383.666V499.665Z" fill="black"/>
<path d="M582.675 495.162C584.081 495.162 585.31 495.441 586.361 495.998C587.412 496.555 588.223 497.341 588.793 498.354C589.376 499.355 589.667 500.514 589.667 501.831C589.667 503.136 589.376 504.295 588.793 505.308C588.223 506.321 587.406 507.107 586.342 507.664C585.291 508.221 584.068 508.5 582.675 508.5H577.678V495.162H582.675ZM582.466 505.688C583.695 505.688 584.651 505.352 585.335 504.681C586.019 504.01 586.361 503.06 586.361 501.831C586.361 500.602 586.019 499.646 585.335 498.962C584.651 498.278 583.695 497.936 582.466 497.936H580.927V505.688H582.466ZM590.837 503.18C590.837 502.091 591.039 501.134 591.445 500.311C591.863 499.488 592.426 498.854 593.136 498.411C593.845 497.968 594.637 497.746 595.511 497.746C596.258 497.746 596.91 497.898 597.468 498.202C598.038 498.506 598.475 498.905 598.779 499.399V497.898H602.028V508.5H598.779V506.999C598.462 507.493 598.019 507.892 597.449 508.196C596.891 508.5 596.239 508.652 595.492 508.652C594.63 508.652 593.845 508.43 593.136 507.987C592.426 507.531 591.863 506.891 591.445 506.068C591.039 505.232 590.837 504.269 590.837 503.18ZM598.779 503.199C598.779 502.388 598.551 501.749 598.095 501.28C597.651 500.811 597.107 500.577 596.461 500.577C595.815 500.577 595.264 500.811 594.808 501.28C594.364 501.736 594.143 502.369 594.143 503.18C594.143 503.991 594.364 504.637 594.808 505.118C595.264 505.587 595.815 505.821 596.461 505.821C597.107 505.821 597.651 505.587 598.095 505.118C598.551 504.649 598.779 504.01 598.779 503.199ZM610.287 505.745V508.5H608.634C607.456 508.5 606.538 508.215 605.879 507.645C605.221 507.062 604.891 506.119 604.891 504.814V500.596H603.599V497.898H604.891V495.314H608.14V497.898H610.268V500.596H608.14V504.852C608.14 505.169 608.216 505.397 608.368 505.536C608.52 505.675 608.774 505.745 609.128 505.745H610.287ZM622.091 503.028C622.091 503.332 622.072 503.649 622.034 503.978H614.681C614.732 504.637 614.941 505.143 615.308 505.498C615.688 505.84 616.15 506.011 616.695 506.011C617.506 506.011 618.069 505.669 618.386 504.985H621.844C621.667 505.682 621.344 506.309 620.875 506.866C620.419 507.423 619.843 507.86 619.146 508.177C618.449 508.494 617.67 508.652 616.809 508.652C615.77 508.652 614.846 508.43 614.035 507.987C613.224 507.544 612.591 506.91 612.135 506.087C611.679 505.264 611.451 504.301 611.451 503.199C611.451 502.097 611.673 501.134 612.116 500.311C612.572 499.488 613.205 498.854 614.016 498.411C614.827 497.968 615.758 497.746 616.809 497.746C617.835 497.746 618.747 497.961 619.545 498.392C620.343 498.823 620.964 499.437 621.407 500.235C621.863 501.033 622.091 501.964 622.091 503.028ZM618.766 502.173C618.766 501.616 618.576 501.172 618.196 500.843C617.816 500.514 617.341 500.349 616.771 500.349C616.226 500.349 615.764 500.507 615.384 500.824C615.017 501.141 614.789 501.59 614.7 502.173H618.766Z" fill="black"/>
<g filter="url(#filter3_d_87_75)">
<path d="M97.0324 405.222H82.8792C47.1865 405.222 18.2518 434.157 18.2518 469.849V648.342C18.2518 684.034 47.1865 712.969 82.8792 712.969H97.0324C132.725 712.969 161.66 684.034 161.66 648.342V469.849C161.66 434.157 132.725 405.222 97.0324 405.222Z" fill="url(#paint5_linear_87_75)"/>
</g>
<path d="M691.191 76.16V77.276H687.651V79.736H690.411V80.852H687.651V84.5H686.283V76.16H691.191ZM693.155 77.012C692.907 77.012 692.699 76.928 692.531 76.76C692.363 76.592 692.279 76.384 692.279 76.136C692.279 75.888 692.363 75.68 692.531 75.512C692.699 75.344 692.907 75.26 693.155 75.26C693.395 75.26 693.599 75.344 693.767 75.512C693.935 75.68 694.019 75.888 694.019 76.136C694.019 76.384 693.935 76.592 693.767 76.76C693.599 76.928 693.395 77.012 693.155 77.012ZM693.827 77.888V84.5H692.459V77.888H693.827ZM698.959 77.78C699.479 77.78 699.943 77.888 700.351 78.104C700.767 78.32 701.091 78.64 701.323 79.064C701.555 79.488 701.671 80 701.671 80.6V84.5H700.315V80.804C700.315 80.212 700.167 79.76 699.871 79.448C699.575 79.128 699.171 78.968 698.659 78.968C698.147 78.968 697.739 79.128 697.435 79.448C697.139 79.76 696.991 80.212 696.991 80.804V84.5H695.623V77.888H696.991V78.644C697.215 78.372 697.499 78.16 697.843 78.008C698.195 77.856 698.567 77.78 698.959 77.78ZM702.96 81.164C702.96 80.5 703.096 79.912 703.368 79.4C703.648 78.888 704.024 78.492 704.496 78.212C704.976 77.924 705.504 77.78 706.08 77.78C706.6 77.78 707.052 77.884 707.436 78.092C707.828 78.292 708.14 78.544 708.372 78.848V77.888H709.752V84.5H708.372V83.516C708.14 83.828 707.824 84.088 707.424 84.296C707.024 84.504 706.568 84.608 706.056 84.608C705.488 84.608 704.968 84.464 704.496 84.176C704.024 83.88 703.648 83.472 703.368 82.952C703.096 82.424 702.96 81.828 702.96 81.164ZM708.372 81.188C708.372 80.732 708.276 80.336 708.084 80C707.9 79.664 707.656 79.408 707.352 79.232C707.048 79.056 706.72 78.968 706.368 78.968C706.016 78.968 705.688 79.056 705.384 79.232C705.08 79.4 704.832 79.652 704.64 79.988C704.456 80.316 704.364 80.708 704.364 81.164C704.364 81.62 704.456 82.02 704.64 82.364C704.832 82.708 705.08 82.972 705.384 83.156C705.696 83.332 706.024 83.42 706.368 83.42C706.72 83.42 707.048 83.332 707.352 83.156C707.656 82.98 707.9 82.724 708.084 82.388C708.276 82.044 708.372 81.644 708.372 81.188ZM714.884 77.78C715.404 77.78 715.868 77.888 716.276 78.104C716.692 78.32 717.016 78.64 717.248 79.064C717.48 79.488 717.596 80 717.596 80.6V84.5H716.24V80.804C716.24 80.212 716.092 79.76 715.796 79.448C715.5 79.128 715.096 78.968 714.584 78.968C714.072 78.968 713.664 79.128 713.36 79.448C713.064 79.76 712.916 80.212 712.916 80.804V84.5H711.548V77.888H712.916V78.644C713.14 78.372 713.424 78.16 713.768 78.008C714.12 77.856 714.492 77.78 714.884 77.78ZM718.885 81.188C718.885 80.508 719.021 79.912 719.293 79.4C719.573 78.88 719.957 78.48 720.445 78.2C720.933 77.92 721.493 77.78 722.125 77.78C722.925 77.78 723.585 77.972 724.105 78.356C724.633 78.732 724.989 79.272 725.173 79.976H723.697C723.577 79.648 723.385 79.392 723.121 79.208C722.857 79.024 722.525 78.932 722.125 78.932C721.565 78.932 721.117 79.132 720.781 79.532C720.453 79.924 720.289 80.476 720.289 81.188C720.289 81.9 720.453 82.456 720.781 82.856C721.117 83.256 721.565 83.456 722.125 83.456C722.917 83.456 723.441 83.108 723.697 82.412H725.173C724.981 83.084 724.621 83.62 724.093 84.02C723.565 84.412 722.909 84.608 722.125 84.608C721.493 84.608 720.933 84.468 720.445 84.188C719.957 83.9 719.573 83.5 719.293 82.988C719.021 82.468 718.885 81.868 718.885 81.188ZM727.233 77.012C726.985 77.012 726.777 76.928 726.609 76.76C726.441 76.592 726.357 76.384 726.357 76.136C726.357 75.888 726.441 75.68 726.609 75.512C726.777 75.344 726.985 75.26 727.233 75.26C727.473 75.26 727.677 75.344 727.845 75.512C728.013 75.68 728.097 75.888 728.097 76.136C728.097 76.384 728.013 76.592 727.845 76.76C727.677 76.928 727.473 77.012 727.233 77.012ZM727.905 77.888V84.5H726.537V77.888H727.905ZM729.245 81.164C729.245 80.5 729.381 79.912 729.653 79.4C729.933 78.888 730.309 78.492 730.781 78.212C731.261 77.924 731.789 77.78 732.365 77.78C732.885 77.78 733.337 77.884 733.721 78.092C734.113 78.292 734.425 78.544 734.657 78.848V77.888H736.037V84.5H734.657V83.516C734.425 83.828 734.109 84.088 733.709 84.296C733.309 84.504 732.853 84.608 732.341 84.608C731.773 84.608 731.253 84.464 730.781 84.176C730.309 83.88 729.933 83.472 729.653 82.952C729.381 82.424 729.245 81.828 729.245 81.164ZM734.657 81.188C734.657 80.732 734.561 80.336 734.369 80C734.185 79.664 733.941 79.408 733.637 79.232C733.333 79.056 733.005 78.968 732.653 78.968C732.301 78.968 731.973 79.056 731.669 79.232C731.365 79.4 731.117 79.652 730.925 79.988C730.741 80.316 730.649 80.708 730.649 81.164C730.649 81.62 730.741 82.02 730.925 82.364C731.117 82.708 731.365 82.972 731.669 83.156C731.981 83.332 732.309 83.42 732.653 83.42C733.005 83.42 733.333 83.332 733.637 83.156C733.941 82.98 734.185 82.724 734.369 82.388C734.561 82.044 734.657 81.644 734.657 81.188ZM739.202 75.62V84.5H737.834V75.62H739.202ZM745.483 83.396H748.303V84.5H744.115V76.16H745.483V83.396ZM750.143 77.012C749.895 77.012 749.687 76.928 749.519 76.76C749.351 76.592 749.267 76.384 749.267 76.136C749.267 75.888 749.351 75.68 749.519 75.512C749.687 75.344 749.895 75.26 750.143 75.26C750.383 75.26 750.587 75.344 750.755 75.512C750.923 75.68 751.007 75.888 751.007 76.136C751.007 76.384 750.923 76.592 750.755 76.76C750.587 76.928 750.383 77.012 750.143 77.012ZM750.815 77.888V84.5H749.447V77.888H750.815ZM754.207 79.004V82.664C754.207 82.912 754.263 83.092 754.375 83.204C754.495 83.308 754.695 83.36 754.975 83.36H755.815V84.5H754.735C754.119 84.5 753.647 84.356 753.319 84.068C752.991 83.78 752.827 83.312 752.827 82.664V79.004H752.047V77.888H752.827V76.244H754.207V77.888H755.815V79.004H754.207ZM763.136 81.032C763.136 81.28 763.12 81.504 763.088 81.704H758.036C758.076 82.232 758.272 82.656 758.624 82.976C758.976 83.296 759.408 83.456 759.92 83.456C760.656 83.456 761.176 83.148 761.48 82.532H762.956C762.756 83.14 762.392 83.64 761.864 84.032C761.344 84.416 760.696 84.608 759.92 84.608C759.288 84.608 758.72 84.468 758.216 84.188C757.72 83.9 757.328 83.5 757.04 82.988C756.76 82.468 756.62 81.868 756.62 81.188C756.62 80.508 756.756 79.912 757.028 79.4C757.308 78.88 757.696 78.48 758.192 78.2C758.696 77.92 759.272 77.78 759.92 77.78C760.544 77.78 761.1 77.916 761.588 78.188C762.076 78.46 762.456 78.844 762.728 79.34C763 79.828 763.136 80.392 763.136 81.032ZM761.708 80.6C761.7 80.096 761.52 79.692 761.168 79.388C760.816 79.084 760.38 78.932 759.86 78.932C759.388 78.932 758.984 79.084 758.648 79.388C758.312 79.684 758.112 80.088 758.048 80.6H761.708ZM765.85 78.848C766.05 78.512 766.314 78.252 766.642 78.068C766.978 77.876 767.374 77.78 767.83 77.78V79.196H767.482C766.946 79.196 766.538 79.332 766.258 79.604C765.986 79.876 765.85 80.348 765.85 81.02V84.5H764.482V77.888H765.85V78.848ZM768.632 81.164C768.632 80.5 768.768 79.912 769.04 79.4C769.32 78.888 769.696 78.492 770.168 78.212C770.648 77.924 771.176 77.78 771.752 77.78C772.272 77.78 772.724 77.884 773.108 78.092C773.5 78.292 773.812 78.544 774.044 78.848V77.888H775.424V84.5H774.044V83.516C773.812 83.828 773.496 84.088 773.096 84.296C772.696 84.504 772.24 84.608 771.728 84.608C771.16 84.608 770.64 84.464 770.168 84.176C769.696 83.88 769.32 83.472 769.04 82.952C768.768 82.424 768.632 81.828 768.632 81.164ZM774.044 81.188C774.044 80.732 773.948 80.336 773.756 80C773.572 79.664 773.328 79.408 773.024 79.232C772.72 79.056 772.392 78.968 772.04 78.968C771.688 78.968 771.36 79.056 771.056 79.232C770.752 79.4 770.504 79.652 770.312 79.988C770.128 80.316 770.036 80.708 770.036 81.164C770.036 81.62 770.128 82.02 770.312 82.364C770.504 82.708 770.752 82.972 771.056 83.156C771.368 83.332 771.696 83.42 772.04 83.42C772.392 83.42 772.72 83.332 773.024 83.156C773.328 82.98 773.572 82.724 773.756 82.388C773.948 82.044 774.044 81.644 774.044 81.188ZM776.764 81.188C776.764 80.508 776.9 79.912 777.172 79.4C777.452 78.88 777.836 78.48 778.324 78.2C778.812 77.92 779.372 77.78 780.004 77.78C780.804 77.78 781.464 77.972 781.984 78.356C782.512 78.732 782.868 79.272 783.052 79.976H781.576C781.456 79.648 781.264 79.392 781 79.208C780.736 79.024 780.404 78.932 780.004 78.932C779.444 78.932 778.996 79.132 778.66 79.532C778.332 79.924 778.168 80.476 778.168 81.188C778.168 81.9 778.332 82.456 778.66 82.856C778.996 83.256 779.444 83.456 780.004 83.456C780.796 83.456 781.32 83.108 781.576 82.412H783.052C782.86 83.084 782.5 83.62 781.972 84.02C781.444 84.412 780.788 84.608 780.004 84.608C779.372 84.608 778.812 84.468 778.324 84.188C777.836 83.9 777.452 83.5 777.172 82.988C776.9 82.468 776.764 81.868 776.764 81.188ZM790.368 77.888L786.312 87.608H784.896L786.24 84.392L783.636 77.888H785.16L787.02 82.928L788.952 77.888H790.368ZM730.648 94.16V95.276H727.108V97.736H729.868V98.852H727.108V102.5H725.74V94.16H730.648ZM734.784 102.608C734.16 102.608 733.596 102.468 733.092 102.188C732.588 101.9 732.192 101.5 731.904 100.988C731.616 100.468 731.472 99.868 731.472 99.188C731.472 98.516 731.62 97.92 731.916 97.4C732.212 96.88 732.616 96.48 733.128 96.2C733.64 95.92 734.212 95.78 734.844 95.78C735.476 95.78 736.048 95.92 736.56 96.2C737.072 96.48 737.476 96.88 737.772 97.4C738.068 97.92 738.216 98.516 738.216 99.188C738.216 99.86 738.064 100.456 737.76 100.976C737.456 101.496 737.04 101.9 736.512 102.188C735.992 102.468 735.416 102.608 734.784 102.608ZM734.784 101.42C735.136 101.42 735.464 101.336 735.768 101.168C736.08 101 736.332 100.748 736.524 100.412C736.716 100.076 736.812 99.668 736.812 99.188C736.812 98.708 736.72 98.304 736.536 97.976C736.352 97.64 736.108 97.388 735.804 97.22C735.5 97.052 735.172 96.968 734.82 96.968C734.468 96.968 734.14 97.052 733.836 97.22C733.54 97.388 733.304 97.64 733.128 97.976C732.952 98.304 732.864 98.708 732.864 99.188C732.864 99.9 733.044 100.452 733.404 100.844C733.772 101.228 734.232 101.42 734.784 101.42ZM740.936 96.848C741.136 96.512 741.4 96.252 741.728 96.068C742.064 95.876 742.46 95.78 742.916 95.78V97.196H742.568C742.032 97.196 741.624 97.332 741.344 97.604C741.072 97.876 740.936 98.348 740.936 99.02V102.5H739.568V95.888H740.936V96.848ZM750.039 102.584C749.479 102.584 748.975 102.488 748.527 102.296C748.079 102.096 747.727 101.816 747.471 101.456C747.215 101.096 747.087 100.676 747.087 100.196H748.551C748.583 100.556 748.723 100.852 748.971 101.084C749.227 101.316 749.583 101.432 750.039 101.432C750.511 101.432 750.879 101.32 751.143 101.096C751.407 100.864 751.539 100.568 751.539 100.208C751.539 99.928 751.455 99.7 751.287 99.524C751.127 99.348 750.923 99.212 750.675 99.116C750.435 99.02 750.099 98.916 749.667 98.804C749.123 98.66 748.679 98.516 748.335 98.372C747.999 98.22 747.711 97.988 747.471 97.676C747.231 97.364 747.111 96.948 747.111 96.428C747.111 95.948 747.231 95.528 747.471 95.168C747.711 94.808 748.047 94.532 748.479 94.34C748.911 94.148 749.411 94.052 749.979 94.052C750.787 94.052 751.447 94.256 751.959 94.664C752.479 95.064 752.767 95.616 752.823 96.32H751.311C751.287 96.016 751.143 95.756 750.879 95.54C750.615 95.324 750.267 95.216 749.835 95.216C749.443 95.216 749.123 95.316 748.875 95.516C748.627 95.716 748.503 96.004 748.503 96.38C748.503 96.636 748.579 96.848 748.731 97.016C748.891 97.176 749.091 97.304 749.331 97.4C749.571 97.496 749.899 97.6 750.315 97.712C750.867 97.864 751.315 98.016 751.659 98.168C752.011 98.32 752.307 98.556 752.547 98.876C752.795 99.188 752.919 99.608 752.919 100.136C752.919 100.56 752.803 100.96 752.571 101.336C752.347 101.712 752.015 102.016 751.575 102.248C751.143 102.472 750.631 102.584 750.039 102.584ZM757.401 102.608C756.777 102.608 756.213 102.468 755.709 102.188C755.205 101.9 754.809 101.5 754.521 100.988C754.233 100.468 754.089 99.868 754.089 99.188C754.089 98.516 754.237 97.92 754.533 97.4C754.829 96.88 755.233 96.48 755.745 96.2C756.257 95.92 756.829 95.78 757.461 95.78C758.093 95.78 758.665 95.92 759.177 96.2C759.689 96.48 760.093 96.88 760.389 97.4C760.685 97.92 760.833 98.516 760.833 99.188C760.833 99.86 760.681 100.456 760.377 100.976C760.073 101.496 759.657 101.9 759.129 102.188C758.609 102.468 758.033 102.608 757.401 102.608ZM757.401 101.42C757.753 101.42 758.081 101.336 758.385 101.168C758.697 101 758.949 100.748 759.141 100.412C759.333 100.076 759.429 99.668 759.429 99.188C759.429 98.708 759.337 98.304 759.153 97.976C758.969 97.64 758.725 97.388 758.421 97.22C758.117 97.052 757.789 96.968 757.437 96.968C757.085 96.968 756.757 97.052 756.453 97.22C756.157 97.388 755.921 97.64 755.745 97.976C755.569 98.304 755.481 98.708 755.481 99.188C755.481 99.9 755.661 100.452 756.021 100.844C756.389 101.228 756.849 101.42 757.401 101.42ZM761.729 99.188C761.729 98.508 761.865 97.912 762.137 97.4C762.417 96.88 762.801 96.48 763.289 96.2C763.777 95.92 764.337 95.78 764.969 95.78C765.769 95.78 766.429 95.972 766.949 96.356C767.477 96.732 767.833 97.272 768.017 97.976H766.541C766.421 97.648 766.229 97.392 765.965 97.208C765.701 97.024 765.369 96.932 764.969 96.932C764.409 96.932 763.961 97.132 763.625 97.532C763.297 97.924 763.133 98.476 763.133 99.188C763.133 99.9 763.297 100.456 763.625 100.856C763.961 101.256 764.409 101.456 764.969 101.456C765.761 101.456 766.285 101.108 766.541 100.412H768.017C767.825 101.084 767.465 101.62 766.937 102.02C766.409 102.412 765.753 102.608 764.969 102.608C764.337 102.608 763.777 102.468 763.289 102.188C762.801 101.9 762.417 101.5 762.137 100.988C761.865 100.468 761.729 99.868 761.729 99.188ZM770.076 95.012C769.828 95.012 769.62 94.928 769.452 94.76C769.284 94.592 769.2 94.384 769.2 94.136C769.2 93.888 769.284 93.68 769.452 93.512C769.62 93.344 769.828 93.26 770.076 93.26C770.316 93.26 770.52 93.344 770.688 93.512C770.856 93.68 770.94 93.888 770.94 94.136C770.94 94.384 770.856 94.592 770.688 94.76C770.52 94.928 770.316 95.012 770.076 95.012ZM770.748 95.888V102.5H769.38V95.888H770.748ZM778.605 99.032C778.605 99.28 778.589 99.504 778.557 99.704H773.505C773.545 100.232 773.741 100.656 774.093 100.976C774.445 101.296 774.877 101.456 775.389 101.456C776.125 101.456 776.645 101.148 776.949 100.532H778.425C778.225 101.14 777.861 101.64 777.333 102.032C776.813 102.416 776.165 102.608 775.389 102.608C774.757 102.608 774.189 102.468 773.685 102.188C773.189 101.9 772.797 101.5 772.509 100.988C772.229 100.468 772.089 99.868 772.089 99.188C772.089 98.508 772.225 97.912 772.497 97.4C772.777 96.88 773.165 96.48 773.661 96.2C774.165 95.92 774.741 95.78 775.389 95.78C776.013 95.78 776.569 95.916 777.057 96.188C777.545 96.46 777.925 96.844 778.197 97.34C778.469 97.828 778.605 98.392 778.605 99.032ZM777.177 98.6C777.169 98.096 776.989 97.692 776.637 97.388C776.285 97.084 775.849 96.932 775.329 96.932C774.857 96.932 774.453 97.084 774.117 97.388C773.781 97.684 773.581 98.088 773.517 98.6H777.177ZM781.547 97.004V100.664C781.547 100.912 781.603 101.092 781.715 101.204C781.835 101.308 782.035 101.36 782.315 101.36H783.155V102.5H782.075C781.459 102.5 780.987 102.356 780.659 102.068C780.331 101.78 780.167 101.312 780.167 100.664V97.004H779.387V95.888H780.167V94.244H781.547V95.888H783.155V97.004H781.547ZM790.368 95.888L786.312 105.608H784.896L786.24 102.392L783.636 95.888H785.16L787.02 100.928L788.952 95.888H790.368Z" fill="black"/>
<path d="M735.956 42.6519V45.9399H729.092V49.4919H734.228V52.6839H729.092V59.4999H724.988V42.6519H735.956ZM740.177 44.7159C739.457 44.7159 738.865 44.5079 738.401 44.0919C737.953 43.6599 737.729 43.1319 737.729 42.5079C737.729 41.8679 737.953 41.3399 738.401 40.9239C738.865 40.4919 739.457 40.2759 740.177 40.2759C740.881 40.2759 741.457 40.4919 741.905 40.9239C742.369 41.3399 742.601 41.8679 742.601 42.5079C742.601 43.1319 742.369 43.6599 741.905 44.0919C741.457 44.5079 740.881 44.7159 740.177 44.7159ZM742.217 46.1079V59.4999H738.113V46.1079H742.217ZM753.351 45.9639C754.919 45.9639 756.167 46.4759 757.095 47.4999C758.039 48.5079 758.511 49.8999 758.511 51.6759V59.4999H754.431V52.2279C754.431 51.3319 754.199 50.6359 753.735 50.1399C753.271 49.6439 752.647 49.3959 751.863 49.3959C751.079 49.3959 750.455 49.6439 749.991 50.1399C749.527 50.6359 749.295 51.3319 749.295 52.2279V59.4999H745.191V46.1079H749.295V47.8839C749.711 47.2919 750.271 46.8279 750.975 46.4919C751.679 46.1399 752.471 45.9639 753.351 45.9639ZM760.547 52.8039C760.547 51.4119 760.827 50.1959 761.387 49.1559C761.963 48.1159 762.755 47.3159 763.763 46.7559C764.787 46.1959 765.955 45.9159 767.267 45.9159C768.947 45.9159 770.347 46.3559 771.467 47.2359C772.603 48.1159 773.347 49.3559 773.699 50.9559H769.331C768.963 49.9319 768.251 49.4199 767.195 49.4199C766.443 49.4199 765.843 49.7159 765.395 50.3079C764.947 50.8839 764.723 51.7159 764.723 52.8039C764.723 53.8919 764.947 54.7319 765.395 55.3239C765.843 55.8999 766.443 56.1879 767.195 56.1879C768.251 56.1879 768.963 55.6759 769.331 54.6519H773.699C773.347 56.2199 772.603 57.4519 771.467 58.3479C770.331 59.2439 768.931 59.6919 767.267 59.6919C765.955 59.6919 764.787 59.4119 763.763 58.8519C762.755 58.2919 761.963 57.4919 761.387 56.4519C760.827 55.4119 760.547 54.1959 760.547 52.8039ZM789.574 46.1079L781.174 65.8599H776.758L779.83 59.0439L774.382 46.1079H778.966L782.062 54.4839L785.134 46.1079H789.574Z" fill="url(#paint6_linear_87_75)"/>
</g>
</g>
<defs>
<filter id="filter0_d_87_75" x="-86.5" y="-52.5" width="151.408" height="315.747" filterUnits="userSpaceOnUse" color-interpolation-filters="sRGB">
<feFlood flood-opacity="0" result="BackgroundImageFix"/>
<feColorMatrix in="SourceAlpha" type="matrix" values="0 0 0 0 0 0 0 0 0 0 0 0 0 0 0 0 0 0 127 0" result="hardAlpha"/>
<feOffset dy="4"/>
<feGaussianBlur stdDeviation="2"/>
<feComposite in2="hardAlpha" operator="out"/>
<feColorMatrix type="matrix" values="0 0 0 0 0 0 0 0 0 0 0 0 0 0 0 0 0 0 0.25 0"/>
<feBlend mode="normal" in2="BackgroundImageFix" result="effect1_dropShadow_87_75"/>
<feBlend mode="normal" in="SourceGraphic" in2="effect1_dropShadow_87_75" result="shape"/>
</filter>
<filter id="filter1_d_87_75" x="14.5" y="-109.778" width="151.408" height="315.747" filterUnits="userSpaceOnUse" color-interpolation-filters="sRGB">
<feFlood flood-opacity="0" result="BackgroundImageFix"/>
<feColorMatrix in="SourceAlpha" type="matrix" values="0 0 0 0 0 0 0 0 0 0 0 0 0 0 0 0 0 0 127 0" result="hardAlpha"/>
<feOffset dy="4"/>
<feGaussianBlur stdDeviation="2"/>
<feComposite in2="hardAlpha" operator="out"/>
<feColorMatrix type="matrix" values="0 0 0 0 0 0 0 0 0 0 0 0 0 0 0 0 0 0 0.25 0"/>
<feBlend mode="normal" in2="BackgroundImageFix" result="effect1_dropShadow_87_75"/>
<feBlend mode="normal" in="SourceGraphic" in2="effect1_dropShadow_87_75" result="shape"/>
</filter>
<filter id="filter2_d_87_75" x="-70.5" y="316.5" width="151.408" height="315.747" filterUnits="userSpaceOnUse" color-interpolation-filters="sRGB">
<feFlood flood-opacity="0" result="BackgroundImageFix"/>
<feColorMatrix in="SourceAlpha" type="matrix" values="0 0 0 0 0 0 0 0 0 0 0 0 0 0 0 0 0 0 127 0" result="hardAlpha"/>
<feOffset dy="4"/>
<feGaussianBlur stdDeviation="2"/>
<feComposite in2="hardAlpha" operator="out"/>
<feColorMatrix type="matrix" values="0 0 0 0 0 0 0 0 0 0 0 0 0 0 0 0 0 0 0.25 0"/>
<feBlend mode="normal" in2="BackgroundImageFix" result="effect1_dropShadow_87_75"/>
<feBlend mode="normal" in="SourceGraphic" in2="effect1_dropShadow_87_75" result="shape"/>
</filter>
<filter id="filter3_d_87_75" x="14.2518" y="405.222" width="151.408" height="315.747" filterUnits="userSpaceOnUse" color-interpolation-filters="sRGB">
<feFlood flood-opacity="0" result="BackgroundImageFix"/>
<feColorMatrix in="SourceAlpha" type="matrix" values="0 0 0 0 0 0 0 0 0 0 0 0 0 0 0 0 0 0 127 0" result="hardAlpha"/>
<feOffset dy="4"/>
<feGaussianBlur stdDeviation="2"/>
<feComposite in2="hardAlpha" operator="out"/>
<feColorMatrix type="matrix" values="0 0 0 0 0 0 0 0 0 0 0 0 0 0 0 0 0 0 0.25 0"/>
<feBlend mode="normal" in2="BackgroundImageFix" result="effect1_dropShadow_87_75"/>
<feBlend mode="normal" in="SourceGraphic" in2="effect1_dropShadow_87_75" result="shape"/>
</filter>
<linearGradient id="paint0_linear_87_75" x1="421" y1="0" x2="421" y2="595" gradientUnits="userSpaceOnUse">
<stop stop-color="#E9EBFF"/>
<stop offset="1" stop-color="#D9CBFF"/>
</linearGradient>
<linearGradient id="paint1_linear_87_75" x1="-10.7958" y1="-52.5" x2="-10.7958" y2="255.247" gradientUnits="userSpaceOnUse">
<stop stop-color="#465FFF"/>
<stop offset="1" stop-color="#8B5CF6"/>
</linearGradient>
<linearGradient id="paint2_linear_87_75" x1="90.2042" y1="-109.778" x2="90.2042" y2="197.969" gradientUnits="userSpaceOnUse">
<stop stop-color="#465FFF"/>
<stop offset="1" stop-color="#8B5CF6"/>
</linearGradient>
<linearGradient id="paint3_linear_87_75" x1="5.20423" y1="316.5" x2="5.20423" y2="624.247" gradientUnits="userSpaceOnUse">
<stop stop-color="#465FFF"/>
<stop offset="1" stop-color="#8B5CF6"/>
</linearGradient>
<linearGradient id="paint4_linear_87_75" x1="199.5" y1="118.5" x2="549.5" y2="118.5" gradientUnits="userSpaceOnUse">
<stop stop-color="#495FFF"/>
<stop offset="1" stop-color="#865CF7"/>
</linearGradient>
<linearGradient id="paint5_linear_87_75" x1="89.9561" y1="405.222" x2="89.9561" y2="712.969" gradientUnits="userSpaceOnUse">
<stop stop-color="#465FFF"/>
<stop offset="1" stop-color="#8B5CF6"/>
</linearGradient>
<linearGradient id="paint6_linear_87_75" x1="757" y1="33.4999" x2="757" y2="69.4999" gradientUnits="userSpaceOnUse">
<stop stop-color="#4B5FFF"/>
<stop offset="1" stop-color="#895CF6"/>
</linearGradient>
<clipPath id="clip0_87_75">
<rect width="842" height="595" fill="white"/>
</clipPath>
</defs>
</svg>
